<svg width="38" height="38" viewBox="0 0 38 38" fill="none" xmlns="http://www.w3.org/2000/svg">
<path d="M19 16.8569C21.6747 16.8569 24.1731 16.6169 26.4971 16.1369C28.8211 15.6569 30.656 14.9481 31.9981 14.0106V16.8569C31.9981 17.6275 31.4162 18.3419 30.2542 19C29.0922 19.6581 27.5131 20.1813 25.5152 20.5656C23.5191 20.95 21.3467 21.1431 19 21.1431C16.6533 21.1431 14.4809 20.95 12.4829 20.5656C10.4869 20.1794 8.90785 19.6581 7.74395 19C6.58195 18.3419 6 17.6275 6 16.8569V14.0106C7.34208 14.9481 9.17702 15.6569 11.501 16.1369C13.8269 16.6169 16.3253 16.8569 19 16.8569ZM19 29.7137C21.6747 29.7137 24.1731 29.4737 26.4971 28.9937C28.8211 28.5137 30.656 27.805 31.9981 26.8675V29.7137C31.9981 30.4844 31.4162 31.1988 30.2542 31.8569C29.0922 32.515 27.5131 33.0381 25.5152 33.4225C23.5191 33.8069 21.3467 34 19 34C16.6533 34 14.4809 33.8069 12.4829 33.4225C10.485 33.0381 8.90595 32.515 7.74395 31.8569C6.58195 31.1988 6 30.4844 6 29.7137V26.8675C7.34208 27.805 9.17702 28.5137 11.501 28.9937C13.8269 29.4737 16.3253 29.7137 19 29.7137ZM19 23.2863C21.6747 23.2863 24.1731 23.0463 26.4971 22.5663C28.8211 22.0863 30.656 21.3775 31.9981 20.44V23.2863C31.9981 24.0569 31.4162 24.7712 30.2542 25.4294C29.0922 26.0875 27.5131 26.6087 25.5152 26.995C23.5191 27.3794 21.3467 27.5706 19 27.5706C16.6533 27.5706 14.4809 27.3775 12.4829 26.9931C10.485 26.6087 8.90595 26.0856 7.74395 25.4275C6.58195 24.7694 6 24.055 6 23.2844V20.44C7.34208 21.3775 9.17702 22.0863 11.501 22.5663C13.8269 23.0463 16.3253 23.2863 19 23.2863ZM19 4C21.3467 4 23.5191 4.19313 25.5171 4.5775C27.515 4.96187 29.094 5.485 30.2561 6.14313C31.4181 6.80125 32 7.51562 32 8.28625V10.4294C32 11.2 31.4181 11.9144 30.2561 12.5725C29.094 13.2306 27.515 13.7519 25.5171 14.1381C23.5191 14.5225 21.3467 14.7138 19 14.7138C16.6533 14.7138 14.4809 14.5206 12.4829 14.1363C10.485 13.7519 8.90595 13.2288 7.74395 12.5706C6.58195 11.9125 6 11.1981 6 10.4275V8.28625C6 7.51562 6.58195 6.80125 7.74395 6.14313C8.90595 5.485 10.485 4.96187 12.4829 4.5775C14.4809 4.19313 16.6533 4 19 4Z" fill="#136AF8"/>
</svg>
