<svg width="32" height="32" viewBox="0 0 32 32" fill="none" xmlns="http://www.w3.org/2000/svg">
<path d="M26.8155 23.5377L23.898 6.86903C23.7405 5.8365 22.872 5.0419 21.7995 5H8.202C7.1145 5.0434 6.228 5.86044 6.093 6.91841L3.183 23.5392C3.0735 23.8729 3 24.223 3 24.5926C3 26.4751 4.536 28 6.4275 28H23.571C25.4625 28 27 26.4751 27 24.5926C27 24.2215 26.925 23.8729 26.8155 23.5377ZM12.4275 13.5161C12.4275 12.1065 13.5795 10.9602 15 10.9602C16.4205 10.9602 17.571 12.1065 17.571 13.5161C18.519 13.5161 19.2855 14.2793 19.2855 15.2221C19.2855 16.1648 18.519 16.928 17.571 16.928H12.4275C11.4825 16.928 10.7145 16.1648 10.7145 15.2221C10.7145 14.2793 11.4825 13.5161 12.4275 13.5161ZM23.571 26.2971H6.4275C5.484 26.2971 4.7145 25.5339 4.7145 24.5926C4.7145 23.6544 5.484 22.8897 6.4275 22.8897H23.571C24.516 22.8897 25.2855 23.6544 25.2855 24.5926C25.2855 25.5339 24.516 26.2971 23.571 26.2971ZM22.7145 23.7427C22.2405 23.7427 21.858 24.1243 21.858 24.5926C21.858 25.064 22.242 25.4441 22.7145 25.4441C23.187 25.4441 23.571 25.064 23.571 24.5926C23.571 24.1243 23.187 23.7427 22.7145 23.7427Z" fill="url(#paint0_linear_1027_174)"/>
<defs>
<linearGradient id="paint0_linear_1027_174" x1="-5.25884" y1="23.8014" x2="15.9617" y2="42.5544" gradientUnits="userSpaceOnUse">
<stop stop-color="#136AF8"/>
<stop offset="0.485415" stop-color="#98C3FE"/>
<stop offset="1" stop-color="#136AF8"/>
</linearGradient>
</defs>
</svg>
