<svg width="32" height="32" viewBox="0 0 32 32" fill="none" xmlns="http://www.w3.org/2000/svg">
<path d="M16 30.0625C8.23438 30.0625 1.9375 23.7656 1.9375 16C1.9375 8.23438 8.23438 1.9375 16 1.9375C23.7656 1.9375 30.0625 8.23438 30.0625 16C30.0625 23.7656 23.7656 30.0625 16 30.0625ZM12.4656 21.9688V9.97188H9.975V21.9688H12.4656ZM21.5531 13.7906C21.5531 14.4125 21.3906 14.8688 21.0594 15.1562C20.7313 15.4469 20.2719 15.5875 19.6812 15.5875H17.3438V12.0562H19.6812C20.2719 12.0562 20.7313 12.1875 21.0594 12.4563C21.3906 12.7219 21.5531 13.1656 21.5531 13.7906ZM24.0344 13.775C24.0344 12.4781 23.6781 11.5219 22.9594 10.9031C22.2469 10.2844 21.2844 9.975 20.0781 9.975H14.8562V21.9688H17.3469V17.6562H19.8906C21.2219 17.6562 22.2406 17.3625 22.9594 16.7781C23.6781 16.1906 24.0344 15.1906 24.0344 13.775Z" fill="url(#paint0_linear_1027_183)"/>
<defs>
<linearGradient id="paint0_linear_1027_183" x1="-7.74083" y1="24.9283" x2="18.0498" y2="46.7703" gradientUnits="userSpaceOnUse">
<stop stop-color="#136AF8"/>
<stop offset="0.485415" stop-color="#98C3FE"/>
<stop offset="1" stop-color="#136AF8"/>
</linearGradient>
</defs>
</svg>
