<svg width="32" height="32" viewBox="0 0 32 32" fill="none" xmlns="http://www.w3.org/2000/svg">
<path d="M4.69231 21.9231C5.74737 21.9231 6.66211 22.5334 7.10338 23.4192L9.80769 21.9769V20.0385H7.38462C7.32964 20.0385 7.27536 20.0329 7.22243 20.022C4.28426 19.8003 2 17.3469 2 14.3846C2 11.634 3.95521 9.33385 6.57994 8.83238C6.66841 6.38593 8.68618 4.42308 11.1538 4.42308C11.2212 4.42308 11.2889 4.42464 11.3568 4.42771C12.4075 2.91797 14.1411 2 16 2C17.8589 2 19.5925 2.91797 20.6432 4.42771C20.7108 4.42464 20.7785 4.42309 20.8462 4.42308C23.3138 4.42308 25.3316 6.38593 25.4201 8.83238C28.0448 9.33385 30 11.634 30 14.3846C30 17.3469 27.7157 19.8003 24.7776 20.022C24.7246 20.0329 24.6704 20.0385 24.6154 20.0385H22.1923V21.9769L24.8966 23.4192C25.3379 22.5334 26.2526 21.9231 27.3077 21.9231C28.7922 21.9231 30 23.1308 30 24.6154C30 26.0999 28.7922 27.3077 27.3077 27.3077C25.9978 27.3077 24.9041 26.3673 24.6646 25.1263L21.0045 23.1742C20.8754 23.1053 20.7673 23.0026 20.692 22.8771C20.6167 22.7516 20.5769 22.6079 20.5769 22.4615V20.0385H16.8077V23.3679C18.2745 23.7306 19.3654 25.0574 19.3654 26.6346C19.3654 28.4903 17.8556 30 16 30C14.1444 30 12.6346 28.4903 12.6346 26.6346C12.6346 25.0574 13.7255 23.7306 15.1923 23.3679V20.0385H11.4231V22.4615C11.4231 22.7598 11.2587 23.0338 10.9955 23.1742L7.3354 25.1262C7.09595 26.3673 6.00217 27.3077 4.69231 27.3077C3.20777 27.3077 2 26.0999 2 24.6154C2 23.1308 3.20777 21.9231 4.69231 21.9231Z" fill="url(#paint0_linear_1027_192)"/>
<defs>
<linearGradient id="paint0_linear_1027_192" x1="39.6353" y1="24.8886" x2="13.9594" y2="46.6336" gradientUnits="userSpaceOnUse">
<stop stop-color="#136AF8"/>
<stop offset="0.485415" stop-color="#98C3FE"/>
<stop offset="1" stop-color="#136AF8"/>
</linearGradient>
</defs>
</svg>
