<svg width="32" height="32" viewBox="0 0 32 32" fill="none" xmlns="http://www.w3.org/2000/svg">
<path d="M9.24074 9.63147C4.53603 9.82444 0.811384 13.6842 1.00739 18.3158C1.00739 23.1404 4.73204 27 9.43675 27H23.5507C27.6677 26.807 31 23.5263 31 19.6669C31 16.386 28.6477 13.4914 25.3152 12.7195C25.1192 8.47368 21.3946 5 16.8859 5C13.5534 5 10.613 6.9298 9.24089 9.63162L9.24074 9.63147ZM9.68799 22.5825H9.72971V19.3319H21.9949V22.5825H9.68799ZM9.68799 17.2634H9.72971V14.0128H21.9949V17.2634H9.68799ZM13.29 15.7858C13.29 15.65 13.2628 15.5155 13.21 15.39C13.1572 15.2645 13.0799 15.1505 12.9823 15.0545C12.8847 14.9584 12.7689 14.8823 12.6415 14.8303C12.514 14.7783 12.3774 14.7516 12.2394 14.7516C12.1015 14.7516 11.9648 14.7783 11.8374 14.8303C11.7099 14.8823 11.5941 14.9584 11.4965 15.0545C11.399 15.1505 11.3216 15.2645 11.2688 15.39C11.216 15.5155 11.1888 15.65 11.1888 15.7858C11.1888 16.0601 11.2995 16.3232 11.4965 16.5172C11.6936 16.7111 11.9608 16.8201 12.2394 16.8201C12.5181 16.8201 12.7853 16.7111 12.9823 16.5172C13.1793 16.3232 13.29 16.0601 13.29 15.7858ZM13.29 21.1049C13.29 20.9691 13.2628 20.8346 13.21 20.7091C13.1572 20.5837 13.0799 20.4696 12.9823 20.3736C12.8847 20.2776 12.7689 20.2014 12.6415 20.1494C12.514 20.0974 12.3774 20.0707 12.2394 20.0707C12.1015 20.0707 11.9648 20.0974 11.8374 20.1494C11.7099 20.2014 11.5941 20.2776 11.4965 20.3736C11.399 20.4696 11.3216 20.5837 11.2688 20.7091C11.216 20.8346 11.1888 20.9691 11.1888 21.1049C11.1888 21.3793 11.2995 21.6423 11.4965 21.8363C11.6936 22.0302 11.9608 22.1392 12.2394 22.1392C12.5181 22.1392 12.7853 22.0302 12.9823 21.8363C13.1793 21.6423 13.29 21.3793 13.29 21.1049Z" fill="url(#paint0_linear_1027_165)"/>
<defs>
<linearGradient id="paint0_linear_1027_165" x1="41.3235" y1="22.9839" x2="21.0806" y2="46.3618" gradientUnits="userSpaceOnUse">
<stop stop-color="#136AF8"/>
<stop offset="0.485415" stop-color="#98C3FE"/>
<stop offset="1" stop-color="#136AF8"/>
</linearGradient>
</defs>
</svg>
