<svg width="38" height="38" viewBox="0 0 38 38" fill="none" xmlns="http://www.w3.org/2000/svg">
<path d="M9.49999 28.5003H28.5V9.50033H9.49999V28.5003ZM22.1667 31.667H15.8333V34.8337H12.6667V31.667H7.91666C7.49673 31.667 7.094 31.5002 6.79707 31.2032C6.50014 30.9063 6.33332 30.5036 6.33332 30.0837V25.3337H3.16666V22.167H6.33332V15.8337H3.16666V12.667H6.33332V7.91699C6.33332 7.49707 6.50014 7.09434 6.79707 6.79741C7.094 6.50047 7.49673 6.33366 7.91666 6.33366H12.6667V3.16699H15.8333V6.33366H22.1667V3.16699H25.3333V6.33366H30.0833C30.5033 6.33366 30.906 6.50047 31.2029 6.79741C31.4998 7.09434 31.6667 7.49707 31.6667 7.91699V12.667H34.8333V15.8337H31.6667V22.167H34.8333V25.3337H31.6667V30.0837C31.6667 30.5036 31.4998 30.9063 31.2029 31.2032C30.906 31.5002 30.5033 31.667 30.0833 31.667H25.3333V34.8337H22.1667V31.667ZM12.6667 12.667H25.3333V25.3337H12.6667V12.667Z" fill="#136AF8"/>
</svg>
