<svg width="46" height="47" viewBox="0 0 46 47" fill="none" xmlns="http://www.w3.org/2000/svg">
<path d="M14.8235 0.271931L26.5892 7.03172C27.2344 7.40143 27.6314 8.09803 27.6352 8.84912V22.2792C27.6352 23.0342 27.2344 23.7269 26.593 24.0966L14.8235 30.8642C14.1975 31.2222 13.4339 31.2222 12.8079 30.8642L1.04219 24.0966C0.397024 23.7269 0 23.0303 0 22.2753V8.84912C0 8.09414 0.400842 7.39754 1.04601 7.02783L12.8117 0.268039C13.4339 -0.0899923 14.1975 -0.0899924 14.8235 0.271931Z" fill="url(#paint0_linear_1027_372)"/>
<foreignObject x="4.99951" y="1" width="44.5181" height="49.1758"><div xmlns="http://www.w3.org/1999/xhtml" style="backdrop-filter:blur(2px);clip-path:url(#bgblur_0_1027_372_clip_path);height:100%;width:100%"></div></foreignObject><path data-figma-bg-blur-radius="4" d="M26.2535 5.91797C26.8742 5.56054 27.6357 5.55939 28.2623 5.92188L28.2643 5.92285L43.8112 14.8633L43.8121 14.8643C44.4172 15.2114 44.8117 15.8517 44.8619 16.5635L44.8678 16.707V34.4658C44.8678 35.1865 44.5091 35.8474 43.9332 36.2334L43.816 36.3066L28.2653 45.2559C27.638 45.6149 26.874 45.6149 26.2467 45.2559L10.7008 36.3066L10.6998 36.3057C10.0548 35.9356 9.65004 35.2326 9.65002 34.4609V16.7041C9.65002 15.9828 10.0086 15.3187 10.5865 14.9326L10.7057 14.8584L26.2535 5.91797Z" fill="#B3D9FF" fill-opacity="0.5" stroke="url(#paint1_linear_1027_372)" stroke-width="1.3"/>
<g filter="url(#filter1_d_1027_372)">
<path d="M23.4382 33C23.1648 33 22.9397 32.776 22.9397 32.504C22.9397 32.232 23.1648 32.008 23.4382 32.008H30.5457C30.8191 32.008 31.0442 32.232 31.0442 32.504C31.0442 32.776 30.8191 33 30.5457 33H23.4382ZM32.99 17H20.994C19.8925 17 19 17.888 19 18.992V28.176C19 29.272 19.8925 30.168 21.002 30.168H32.998C34.0995 30.168 35 29.28 35 28.176V18.992C34.992 17.888 34.0915 17 32.99 17ZM32.2583 21.064L28.407 25.576C28.3829 25.608 28.3829 25.608 28.3588 25.632C28.0774 25.896 27.6352 25.888 27.3698 25.608L25.191 23.312L22.4412 25.792C22.2322 25.968 21.9186 25.944 21.7337 25.736C21.5648 25.536 21.5729 25.24 21.7658 25.056L24.7327 22.376C25.0141 22.12 25.4482 22.136 25.7136 22.416L27.8603 24.68L31.4945 20.424C31.6714 20.216 31.993 20.192 32.202 20.376C32.4111 20.552 32.4352 20.856 32.2583 21.064Z" fill="white"/>
</g>
<defs>
<clipPath id="bgblur_0_1027_372_clip_path" transform="translate(-4.99951 -1)"><path d="M26.2535 5.91797C26.8742 5.56054 27.6357 5.55939 28.2623 5.92188L28.2643 5.92285L43.8112 14.8633L43.8121 14.8643C44.4172 15.2114 44.8117 15.8517 44.8619 16.5635L44.8678 16.707V34.4658C44.8678 35.1865 44.5091 35.8474 43.9332 36.2334L43.816 36.3066L28.2653 45.2559C27.638 45.6149 26.874 45.6149 26.2467 45.2559L10.7008 36.3066L10.6998 36.3057C10.0548 35.9356 9.65004 35.2326 9.65002 34.4609V16.7041C9.65002 15.9828 10.0086 15.3187 10.5865 14.9326L10.7057 14.8584L26.2535 5.91797Z"/>
</clipPath><filter id="filter1_d_1027_372" x="16" y="17" width="22" height="22" filterUnits="userSpaceOnUse" color-interpolation-filters="sRGB">
<feFlood flood-opacity="0" result="BackgroundImageFix"/>
<feColorMatrix in="SourceAlpha" type="matrix" values="0 0 0 0 0 0 0 0 0 0 0 0 0 0 0 0 0 0 127 0" result="hardAlpha"/>
<feOffset dy="3"/>
<feGaussianBlur stdDeviation="1.5"/>
<feComposite in2="hardAlpha" operator="out"/>
<feColorMatrix type="matrix" values="0 0 0 0 0.0811835 0 0 0 0 0.417515 0 0 0 0 0.753846 0 0 0 0.4 0"/>
<feBlend mode="normal" in2="BackgroundImageFix" result="effect1_dropShadow_1027_372"/>
<feBlend mode="normal" in="SourceGraphic" in2="effect1_dropShadow_1027_372" result="shape"/>
</filter>
<linearGradient id="paint0_linear_1027_372" x1="27.6352" y1="1.54263e-06" x2="-0.810469" y2="30.3737" gradientUnits="userSpaceOnUse">
<stop stop-color="#0B61FF"/>
<stop offset="1" stop-color="#0050E4"/>
</linearGradient>
<linearGradient id="paint1_linear_1027_372" x1="38.9696" y1="40.8448" x2="15.7478" y2="9.24556" gradientUnits="userSpaceOnUse">
<stop offset="0.0111272" stop-color="#B8D6FD"/>
<stop offset="0.667368" stop-color="#AFD1FE"/>
<stop offset="1" stop-color="white"/>
</linearGradient>
</defs>
</svg>
