<svg width="48" height="48" viewBox="0 0 48 48" fill="none" xmlns="http://www.w3.org/2000/svg">
<path d="M27.8383 24.1608C32.3791 25.1414 37.6616 28.3348 37.6616 37.5442C37.6616 40 34.5918 40 24.649 40C14.5826 40 11.6365 40 11.6365 37.5442C11.6365 28.4584 16.9148 25.1456 21.4598 24.1608C17.8997 22.1953 16.6717 17.6545 18.39 13.9707C20.1082 10.287 24.4059 8.93546 27.7188 10.9009C31.0317 12.8664 32.3832 17.4072 30.5414 20.9674C29.9233 22.4425 28.9426 23.4232 27.8383 24.1608Z" fill="white"/>
<path d="M17.5663 24.0111C17.9536 23.8958 18.0525 23.3931 17.7311 23.1458C14.8797 20.962 14.0062 16.8991 15.5678 13.5492C15.7986 13.0547 16.0747 12.6014 16.3919 12.1935C16.6556 11.8556 16.3837 11.3653 15.9552 11.4024C14.1092 11.559 12.3662 12.6962 11.4762 14.604C10.2318 17.27 10.891 20.4881 13.0996 22.2846C13.4046 22.536 13.3139 23.0222 12.9348 23.1417C9.52716 24.2048 6 27.0356 6 33.7232C6 34.7492 6.63044 35.2437 8.35693 35.4868C8.63301 35.5239 8.88848 35.3261 8.91732 35.0459C9.59721 28.1564 13.6765 25.1608 17.5663 24.0111ZM31.3659 24.0111C30.9785 23.8958 30.8797 23.3931 31.201 23.1458C34.0524 20.962 34.926 16.8991 33.3643 13.5492C33.1336 13.0547 32.8575 12.6014 32.5402 12.1935C32.2765 11.8556 32.5485 11.3653 32.977 11.4024C34.823 11.559 36.566 12.6962 37.456 14.604C38.7004 17.27 38.0411 20.4881 35.8325 22.2846C35.5276 22.536 35.6182 23.0222 35.9973 23.1417C39.405 24.2048 42.9321 27.0356 42.9321 33.7232C42.9321 34.7492 42.3017 35.2437 40.5752 35.4868C40.2991 35.5239 40.0437 35.3261 40.0148 35.0459C39.3349 28.1564 35.2556 25.1608 31.3659 24.0111Z" fill="white"/>
</svg>
