<svg width="48" height="48" viewBox="0 0 48 48" fill="none" xmlns="http://www.w3.org/2000/svg">
<path d="M24.2945 34.8209L25.6695 33.1064C24.7698 32.02 24.2266 30.628 24.2266 29.1342C24.2266 25.7052 27.0275 22.9043 30.4735 22.9043C32.3237 22.9043 34.0043 23.7191 35.1416 24.9922V10.037C35.1416 8.91666 34.225 8 33.1046 8H11.037C9.91665 8 9 8.91666 9 10.037V36.5184C9 37.6388 9.91665 38.5554 11.037 38.5554H20.8316C21.256 36.773 22.5801 35.3471 24.2945 34.8209ZM16.3163 12.804H27.8593C28.6062 12.804 29.2173 13.4151 29.2173 14.162C29.2173 14.9089 28.6062 15.52 27.8593 15.52H16.3163C15.5694 15.52 14.9582 14.9089 14.9582 14.162C14.9582 13.4151 15.5524 12.804 16.3163 12.804ZM16.3163 18.9151H27.8593C28.6062 18.9151 29.2173 19.5262 29.2173 20.2731C29.2173 21.02 28.6062 21.6311 27.8593 21.6311H16.3163C15.5694 21.6311 14.9582 21.02 14.9582 20.2731C14.9582 19.5262 15.5524 18.9151 16.3163 18.9151ZM14.9582 26.3842C14.9582 25.6373 15.5694 25.0262 16.3163 25.0262H21.0693C21.8162 25.0262 22.4273 25.6373 22.4273 26.3842C22.4273 27.1311 21.8162 27.7422 21.0693 27.7422H16.3163C15.5524 27.7422 14.9582 27.1311 14.9582 26.3842Z" fill="white"/>
<path d="M35.1587 41.9998H25.7715C24.4813 41.9998 23.4289 40.9473 23.4289 39.6572C23.4289 38.3671 24.4813 37.3146 25.7715 37.3146L29.6248 32.5276C28.0801 32.1541 26.9427 30.7791 26.9427 29.1325C26.9427 27.1974 28.5214 25.6187 30.4735 25.6187C32.4257 25.6187 34.0044 27.1974 34.0044 29.1325C34.0044 30.7791 32.867 32.1541 31.3223 32.5276L35.1756 37.3146C36.4657 37.3146 37.5182 38.3671 37.5182 39.6572C37.5182 40.9473 36.4657 41.9998 35.1587 41.9998Z" fill="white"/>
</svg>
