<svg width="48" height="48" viewBox="0 0 48 48" fill="none" xmlns="http://www.w3.org/2000/svg">
<path d="M38.4984 30.2846H36.3526V25.4915C36.3526 24.167 35.2228 23.0892 33.839 23.0892H24.1714V18.1442H27.61C28.4441 18.1442 29.1265 17.4611 29.1265 16.6262V7.51803C29.1265 6.68311 28.4441 6 27.61 6H18.5111C17.677 6 16.9946 6.68311 16.9946 7.51803V16.6262C16.9946 17.4611 17.677 18.1442 18.5111 18.1442H21.8208V23.0892H12.21C10.8224 23.0892 9.69645 24.167 9.69645 25.4915V30.2846H7.51649C6.68242 30.2846 6 30.9677 6 31.8027V38.482C6 39.3169 6.68242 40 7.51649 40H14.1891C15.0231 40 15.7055 39.3169 15.7055 38.482V31.8027C15.7055 30.9677 15.0231 30.2846 14.1891 30.2846H12.0432V25.5066C12.0584 25.4839 12.1153 25.4421 12.2062 25.4421H21.817V30.2846H19.6825C18.8485 30.2846 18.1661 30.9677 18.1661 31.8027V38.482C18.1661 39.3169 18.8485 40 19.6825 40H26.3551C27.1892 40 27.8716 39.3169 27.8716 38.482V31.8027C27.8716 30.9677 27.1892 30.2846 26.3551 30.2846H24.1638V25.4421H33.8276C33.9186 25.4421 33.9755 25.4839 33.9907 25.5066V30.2846H31.8107C30.9766 30.2846 30.2942 30.9677 30.2942 31.8027V38.482C30.2942 39.3169 30.9766 40 31.8107 40H38.4833C39.3173 40 39.9998 39.3169 39.9998 38.482V31.8027C40.0149 30.9677 39.3325 30.2846 38.4984 30.2846Z" fill="white"/>
</svg>
