<svg width="48" height="48" viewBox="0 0 48 48" fill="none" xmlns="http://www.w3.org/2000/svg">
<path d="M37 41H11C9.89552 41 9 40.1197 9 39.034V14.8514C9 13.7656 9.89552 12.8854 11 12.8854H13.5V16.7989C13.5 17.8847 14.3953 18.7648 15.5 18.7648H32.5C33.6045 18.7648 34.5 17.8845 34.5 16.7989V12.8855H37C38.1047 12.8855 39 13.7658 39 14.8516V39.0341C39 40.1199 38.1047 41 37 41ZM23.3447 24.3207C23.3447 23.6123 22.7607 23.038 22.0403 23.038C21.32 23.038 20.736 23.6123 20.736 24.3207V32.3713L18.1416 30.9065C17.5141 30.5523 16.7119 30.7626 16.3495 31.376C15.9872 31.9896 16.2022 32.7742 16.8297 33.1284L21.3738 35.6939C21.421 35.7206 21.4709 35.7379 21.52 35.7583L21.5412 35.7677C21.6057 35.7932 21.6705 35.8125 21.7367 35.8273C21.7595 35.8328 21.7821 35.8384 21.8053 35.8424C21.8607 35.8518 21.9159 35.8566 21.9714 35.8589C21.9947 35.8601 22.0167 35.8657 22.0403 35.8657C22.0543 35.8657 22.0671 35.8622 22.0809 35.8618C22.1207 35.8603 22.1593 35.8552 22.1986 35.8501C22.2503 35.8438 22.3016 35.837 22.3514 35.8249C22.3719 35.8198 22.3916 35.8125 22.4119 35.8064C22.4753 35.7877 22.5372 35.7666 22.5964 35.7391C22.6072 35.734 22.6172 35.7277 22.6278 35.7223C22.6927 35.6903 22.7548 35.6531 22.8134 35.611C22.8224 35.6045 22.8303 35.5968 22.8391 35.5902C22.8978 35.5452 22.9524 35.4967 23.0024 35.4427C23.0103 35.4342 23.0172 35.4247 23.0248 35.416C23.0741 35.3597 23.1184 35.3001 23.1574 35.236C23.16 35.2319 23.1634 35.2287 23.1659 35.2244C23.1703 35.217 23.1722 35.2088 23.1766 35.2012C23.2116 35.1391 23.2416 35.075 23.2659 35.0072C23.2724 34.9892 23.2772 34.9714 23.2829 34.9532C23.3014 34.893 23.3162 34.832 23.3257 34.7684C23.3293 34.7439 23.331 34.7198 23.3333 34.6953C23.3367 34.6578 23.3448 34.6214 23.3448 34.5828L23.3447 24.3207ZM31.164 25.7753L26.6198 23.2098C26.5724 23.1831 26.5228 23.1658 26.4736 23.1454C26.4666 23.1423 26.4597 23.1389 26.4524 23.136C26.3889 23.1112 26.3235 23.0912 26.2569 23.0764C26.2341 23.0709 26.2116 23.0655 26.1883 23.0613C26.1333 23.0523 26.0779 23.0468 26.0222 23.0448C25.999 23.0436 25.9769 23.038 25.9534 23.038C25.9395 23.038 25.9267 23.0415 25.9129 23.0421C25.8733 23.0436 25.8345 23.0487 25.7952 23.0538C25.7438 23.0591 25.6928 23.0675 25.6424 23.0788C25.6219 23.0839 25.6021 23.0912 25.5819 23.0973C25.5184 23.116 25.4566 23.1371 25.3974 23.1646C25.3866 23.1697 25.3766 23.176 25.366 23.1814C25.3011 23.2134 25.239 23.2506 25.1803 23.2928C25.1714 23.2992 25.1634 23.3069 25.1547 23.3135C25.096 23.3585 25.0414 23.4071 24.9914 23.461C24.9834 23.4695 24.9766 23.479 24.969 23.4879C24.9195 23.544 24.8752 23.6042 24.8364 23.6679C24.8338 23.672 24.8303 23.6752 24.8279 23.6793C24.8236 23.6867 24.8216 23.6949 24.8172 23.7026C24.782 23.7646 24.7521 23.8295 24.7279 23.8965C24.7214 23.9145 24.7164 23.9324 24.7109 23.9505C24.6919 24.011 24.6776 24.0727 24.6681 24.1353C24.6645 24.1598 24.6628 24.1839 24.6607 24.2084C24.6572 24.2461 24.6491 24.2823 24.6491 24.3209V34.5831C24.6491 35.2916 25.2331 35.8659 25.9534 35.8659C26.6738 35.8659 27.2578 35.2916 27.2578 34.5831V26.5325L29.8522 27.9973C30.4797 28.3516 31.2819 28.1413 31.6441 27.5277C32.0064 26.9141 31.7914 26.1295 31.164 25.7753ZM31 17.2966H17C15.8955 17.2966 15 16.4165 15 15.3307V11.9087C15 10.823 15.8955 9.94285 17 9.94285H19.5V8.96604C19.5 7.8801 20.3953 7 21.5 7H26.5C27.6045 7 28.5 7.8801 28.5 8.96587V9.94268H31C32.1047 9.94268 33 10.8228 33 11.9085V15.3305C33 16.4163 32.1047 17.2966 31 17.2966Z" fill="white"/>
</svg>
