<svg width="26" height="26" viewBox="0 0 26 26" fill="none" xmlns="http://www.w3.org/2000/svg">
<path d="M22.5393 9.65354L17.5957 8.41447C17.5043 8.39162 17.4256 8.33322 17.3748 8.25451L14.6707 3.93811C14.5539 3.75276 14.3965 3.59533 14.2111 3.47854C13.5307 3.05197 12.6318 3.25764 12.2053 3.93811L9.49609 8.25705C9.44531 8.33576 9.36659 8.39416 9.27519 8.41701L4.33163 9.65608C4.11835 9.70939 3.92031 9.81096 3.75019 9.95315C3.1332 10.4686 3.05195 11.3877 3.56738 12.0047L4.4205 13.0254L5.50214 13.1219C10.6209 13.5789 15.1353 16.768 17.2834 21.4475L17.7633 22.491L18.2965 22.7043C18.4996 22.7856 18.7205 22.8211 18.9414 22.8059C19.7437 22.75 20.348 22.0569 20.2947 21.2545L19.9443 16.1713C19.9367 16.0774 19.9672 15.986 20.0281 15.9123L23.2984 12.0047C23.4406 11.8371 23.5396 11.6365 23.5955 11.4233C23.791 10.6387 23.3187 9.84904 22.5393 9.65354Z" fill="#0274FF"/>
<path d="M8.57186 22.7018L13.2996 20.7975C13.3428 20.7797 13.3885 20.7721 13.4367 20.7721C13.4824 20.7721 13.5281 20.7797 13.5738 20.7975L16.3033 21.8969C14.3609 17.6643 10.2603 14.6301 5.41327 14.1985L6.8453 15.9098C6.90624 15.9809 6.93671 16.0749 6.92909 16.1688L6.57616 21.2495C6.56093 21.4678 6.59647 21.6887 6.67772 21.8944C6.90624 22.4606 7.45214 22.8059 8.0285 22.8059C8.21132 22.8059 8.39413 22.7729 8.57186 22.7018Z" fill="#0274FF"/>
</svg>
