<svg width="22" height="22" viewBox="0 0 22 22" fill="none" xmlns="http://www.w3.org/2000/svg">
<path d="M8.08301 12.1422C9.05845 12.1423 9.85575 12.9393 9.85352 13.9147V19.2272C9.85352 20.2005 9.05622 20.9976 8.08301 20.9977H2.77051C1.79726 20.9977 1 20.2005 1 19.2272V13.9147C1 12.9392 1.79726 12.1422 2.77051 12.1422H8.08301ZM18.709 12.1422C19.6843 12.1425 20.4808 12.9396 20.4785 13.9127V19.2252C20.4785 20.1982 19.6821 20.9955 18.709 20.9958H13.3955C12.4224 20.9956 11.626 20.1983 11.626 19.2252V13.9127C11.626 12.9396 12.4224 12.1424 13.3955 12.1422H18.709ZM14.7998 1.51626C15.4896 0.826449 16.614 0.826449 17.3037 1.51626L20.4824 4.69399C21.1723 5.38154 21.1723 6.50912 20.4824 7.19888L17.3037 10.3776C16.614 11.0672 15.4895 11.0672 14.7998 10.3776L11.6211 7.19888C10.9313 6.50912 10.9313 5.38377 11.6211 4.69399L14.7998 1.51626ZM8.08301 1.51724C9.05845 1.5173 9.85575 2.31425 9.85352 3.2897V8.6022C9.85352 9.5754 9.05622 10.3726 8.08301 10.3727H2.77051C1.79726 10.3727 1 9.57544 1 8.6022V3.2897C1 2.31421 1.79726 1.51724 2.77051 1.51724H8.08301Z" fill="#64748B"/>
</svg>
