<svg width="22" height="22" viewBox="0 0 22 22" fill="none" xmlns="http://www.w3.org/2000/svg">
<path d="M15.7373 2C16.7838 2.00025 17.6316 2.85229 17.6318 3.9043V8.33789C17.6318 8.58063 17.4184 8.76162 17.1816 8.72363C16.9972 8.69509 16.803 8.66607 16.6846 8.66602C14.8562 8.66602 13.3682 10.162 13.3682 12C13.3682 12.5522 13.5059 13.0854 13.7568 13.5566C13.9936 14.0042 14.0554 14.5232 13.9229 15.0088C13.7855 15.5039 13.4584 15.9133 13.0322 16.1895C12.3786 16.6132 11.9474 17.3515 11.9473 18.1895V19.1426C11.9473 19.3756 11.9806 19.6042 12.0469 19.8135C12.0847 19.9562 11.9806 20.0945 11.834 20.0947H3.89453C2.84778 20.0946 2 19.2417 2 18.1895V3.9043C2.0002 2.85221 2.8479 2.00011 3.89453 2H15.7373ZM16.8164 10.1045C16.8496 10.1045 16.8788 10.1046 16.9072 10.1094C16.9828 10.1142 17.0583 10.1285 17.1338 10.1475C17.2237 10.1665 17.3092 10.1952 17.3896 10.2285C17.3898 10.2323 17.3936 10.2333 17.3945 10.2334C17.9549 10.4612 18.3744 10.944 18.5225 11.5332C18.7401 12.4376 18.309 13.261 17.6084 13.6562L18.4561 16.7803C18.5272 17.0469 18.7733 17.2373 19.0527 17.2373C19.5737 17.2374 19.9999 17.6658 20 18.1895V19.1426C19.9997 19.666 19.5736 20.0947 19.0527 20.0947H14.3154C13.7947 20.0945 13.3684 19.6659 13.3682 19.1426V18.1895C13.3683 17.6659 13.7946 17.2375 14.3154 17.2373C14.5949 17.2373 14.842 17.0468 14.9131 16.7754L15.7607 13.6514C15.183 13.3276 14.7892 12.714 14.7891 12C14.7891 11.881 14.8036 11.7616 14.832 11.6426C14.8368 11.6283 14.8371 11.609 14.8418 11.5947C14.8655 11.49 14.8939 11.3851 14.9365 11.2852C14.9459 11.2663 14.9506 11.2474 14.96 11.2285C15.0026 11.1286 15.0545 11.0377 15.1113 10.9473C15.1207 10.9378 15.1302 10.9234 15.1396 10.9092C15.2012 10.8187 15.2729 10.7285 15.3486 10.6523C15.3486 10.6476 15.3535 10.6475 15.3535 10.6475C15.4293 10.5713 15.5145 10.4994 15.6045 10.4375C15.6185 10.428 15.6285 10.4186 15.6426 10.4092C15.7278 10.3521 15.8225 10.2996 15.9219 10.2568C15.9407 10.2474 15.9597 10.2429 15.9785 10.2334C16.0779 10.1953 16.1772 10.1615 16.2861 10.1377C16.3051 10.1329 16.3199 10.1327 16.3389 10.1279C16.4477 10.1089 16.5663 10.0947 16.6846 10.0947C16.727 10.0948 16.774 10.0998 16.8164 10.1045ZM5.55273 11.5234C5.15968 11.5234 4.84195 11.8422 4.8418 12.2373C4.8418 12.6325 5.15958 12.9521 5.55273 12.9521H9.81543C10.2086 12.9521 10.5264 12.6325 10.5264 12.2373C10.5262 11.8422 10.2085 11.5234 9.81543 11.5234H5.55273ZM5.55273 8.66602C5.15958 8.66602 4.8418 8.98563 4.8418 9.38086C4.84193 9.77595 5.15967 10.0947 5.55273 10.0947H9.81543C10.2085 10.0947 10.5262 9.77595 10.5264 9.38086C10.5264 8.98563 10.2086 8.66602 9.81543 8.66602H5.55273ZM5.55273 5.80957C5.15963 5.80957 4.84188 6.12829 4.8418 6.52344C4.8418 6.91865 5.15958 7.23828 5.55273 7.23828H13.6055C13.9985 7.23818 14.3154 6.91858 14.3154 6.52344C14.3154 6.12836 13.9985 5.80967 13.6055 5.80957H5.55273Z" fill="#0274FF"/>
<mask id="mask0_187_1212" style="mask-type:luminance" maskUnits="userSpaceOnUse" x="2" y="2" width="18" height="19">
<path d="M15.7373 2C16.7838 2.00025 17.6316 2.85229 17.6318 3.9043V8.33789C17.6318 8.58063 17.4184 8.76162 17.1816 8.72363C16.9972 8.69509 16.803 8.66607 16.6846 8.66602C14.8562 8.66602 13.3682 10.162 13.3682 12C13.3682 12.5522 13.5059 13.0854 13.7568 13.5566C13.9936 14.0042 14.0554 14.5232 13.9229 15.0088C13.7855 15.5039 13.4584 15.9133 13.0322 16.1895C12.3786 16.6132 11.9474 17.3515 11.9473 18.1895V19.1426C11.9473 19.3756 11.9806 19.6042 12.0469 19.8135C12.0847 19.9562 11.9806 20.0945 11.834 20.0947H3.89453C2.84778 20.0946 2 19.2417 2 18.1895V3.9043C2.0002 2.85221 2.8479 2.00011 3.89453 2H15.7373ZM16.8164 10.1045C16.8496 10.1045 16.8788 10.1046 16.9072 10.1094C16.9828 10.1142 17.0583 10.1285 17.1338 10.1475C17.2237 10.1665 17.3092 10.1952 17.3896 10.2285C17.3898 10.2323 17.3936 10.2333 17.3945 10.2334C17.9549 10.4612 18.3744 10.944 18.5225 11.5332C18.7401 12.4376 18.309 13.261 17.6084 13.6562L18.4561 16.7803C18.5272 17.0469 18.7733 17.2373 19.0527 17.2373C19.5737 17.2374 19.9999 17.6658 20 18.1895V19.1426C19.9997 19.666 19.5736 20.0947 19.0527 20.0947H14.3154C13.7947 20.0945 13.3684 19.6659 13.3682 19.1426V18.1895C13.3683 17.6659 13.7946 17.2375 14.3154 17.2373C14.5949 17.2373 14.842 17.0468 14.9131 16.7754L15.7607 13.6514C15.183 13.3276 14.7892 12.714 14.7891 12C14.7891 11.881 14.8036 11.7616 14.832 11.6426C14.8368 11.6283 14.8371 11.609 14.8418 11.5947C14.8655 11.49 14.8939 11.3851 14.9365 11.2852C14.9459 11.2663 14.9506 11.2474 14.96 11.2285C15.0026 11.1286 15.0545 11.0377 15.1113 10.9473C15.1207 10.9378 15.1302 10.9234 15.1396 10.9092C15.2012 10.8187 15.2729 10.7285 15.3486 10.6523C15.3486 10.6476 15.3535 10.6475 15.3535 10.6475C15.4293 10.5713 15.5145 10.4994 15.6045 10.4375C15.6185 10.428 15.6285 10.4186 15.6426 10.4092C15.7278 10.3521 15.8225 10.2996 15.9219 10.2568C15.9407 10.2474 15.9597 10.2429 15.9785 10.2334C16.0779 10.1953 16.1772 10.1615 16.2861 10.1377C16.3051 10.1329 16.3199 10.1327 16.3389 10.1279C16.4477 10.1089 16.5663 10.0947 16.6846 10.0947C16.727 10.0948 16.774 10.0998 16.8164 10.1045ZM5.55273 11.5234C5.15968 11.5234 4.84195 11.8422 4.8418 12.2373C4.8418 12.6325 5.15958 12.9521 5.55273 12.9521H9.81543C10.2086 12.9521 10.5264 12.6325 10.5264 12.2373C10.5262 11.8422 10.2085 11.5234 9.81543 11.5234H5.55273ZM5.55273 8.66602C5.15958 8.66602 4.8418 8.98563 4.8418 9.38086C4.84193 9.77595 5.15967 10.0947 5.55273 10.0947H9.81543C10.2085 10.0947 10.5262 9.77595 10.5264 9.38086C10.5264 8.98563 10.2086 8.66602 9.81543 8.66602H5.55273ZM5.55273 5.80957C5.15963 5.80957 4.84188 6.12829 4.8418 6.52344C4.8418 6.91865 5.15958 7.23828 5.55273 7.23828H13.6055C13.9985 7.23818 14.3154 6.91858 14.3154 6.52344C14.3154 6.12836 13.9985 5.80967 13.6055 5.80957H5.55273Z" fill="white"/>
</mask>
<g mask="url(#mask0_187_1212)">
<path fill-rule="evenodd" clip-rule="evenodd" d="M-0.583984 -0.59729H22.5835V22.6917H-0.583984V-0.59729Z" fill="#0274FF"/>
</g>
</svg>
