<svg width="24" height="24" viewBox="0 0 24 24" fill="none" xmlns="http://www.w3.org/2000/svg">
<path d="M8.2 4H5.6C4.71634 4 4 4.71634 4 5.6V8.2C4 9.08366 4.71634 9.8 5.6 9.8H8.2C9.08366 9.8 9.8 9.08366 9.8 8.2V5.6C9.8 4.71634 9.08366 4 8.2 4Z" stroke="#4D5F78" stroke-width="1.8"/>
<path d="M18.4 4H15.8C14.9163 4 14.2 4.71634 14.2 5.6V8.2C14.2 9.08366 14.9163 9.8 15.8 9.8H18.4C19.2837 9.8 20 9.08366 20 8.2V5.6C20 4.71634 19.2837 4 18.4 4Z" stroke="#4D5F78" stroke-width="1.8"/>
<path d="M8.2 14.2H5.6C4.71634 14.2 4 14.9163 4 15.8V18.4C4 19.2836 4.71634 20 5.6 20H8.2C9.08366 20 9.8 19.2836 9.8 18.4V15.8C9.8 14.9163 9.08366 14.2 8.2 14.2Z" stroke="#4D5F78" stroke-width="1.8"/>
<path d="M18.4 14.2H15.8C14.9163 14.2 14.2 14.9163 14.2 15.8V18.4C14.2 19.2836 14.9163 20 15.8 20H18.4C19.2837 20 20 19.2836 20 18.4V15.8C20 14.9163 19.2837 14.2 18.4 14.2Z" stroke="#4D5F78" stroke-width="1.8"/>
</svg>
