<svg width="21" height="23" viewBox="0 0 21 23" fill="none" xmlns="http://www.w3.org/2000/svg">
<path d="M4.34119 22.0243H13.6127C13.8823 22.024 14.1009 22.2423 14.1012 22.5118C14.1012 22.5119 14.1012 22.512 14.1012 22.512C14.1012 22.7815 13.8827 23 13.6132 23H4.34119C4.07169 23 3.85321 22.7815 3.85321 22.512C3.85334 22.2426 4.07178 22.0243 4.34119 22.0243Z" fill="#0274FF"/>
<mask id="mask0_207_59" style="mask-type:luminance" maskUnits="userSpaceOnUse" x="3" y="22" width="12" height="1">
<path d="M4.34119 22.0243H13.6127C13.8823 22.024 14.1009 22.2423 14.1012 22.5118C14.1012 22.5119 14.1012 22.512 14.1012 22.512C14.1012 22.7815 13.8827 23 13.6132 23H4.34119C4.07169 23 3.85321 22.7815 3.85321 22.512C3.85334 22.2426 4.07178 22.0243 4.34119 22.0243Z" fill="white"/>
</mask>
<g mask="url(#mask0_207_59)">
<path fill-rule="evenodd" clip-rule="evenodd" d="M1.08075 19.2517H16.8739V25.7726H1.08075V19.2517Z" fill="#0274FF"/>
</g>
<path d="M17.5999 10.3975C19.071 10.5591 20.184 11.8033 20.1819 13.2832C20.1829 14.8834 18.88 16.1855 17.2786 16.1855C16.8952 16.1862 16.5153 16.1106 16.1614 15.9629L15.6429 15.7471L15.929 15.2637C16.6693 14.0142 17.0598 12.5881 17.0589 11.1357V10.3379L17.5999 10.3975ZM18.0286 11.5059C17.9762 12.7903 17.6512 14.0489 17.0755 15.1982C17.1427 15.2052 17.2101 15.209 17.2776 15.209C18.3424 15.2085 19.2058 14.345 19.2054 13.2803C19.205 12.5063 18.7413 11.8077 18.0286 11.5059Z" fill="#0274FF"/>
<mask id="mask1_207_59" style="mask-type:luminance" maskUnits="userSpaceOnUse" x="15" y="10" width="6" height="7">
<path d="M17.5999 10.3975C19.071 10.5591 20.184 11.8033 20.1819 13.2832C20.1829 14.8834 18.88 16.1855 17.2786 16.1855C16.8952 16.1862 16.5153 16.1106 16.1614 15.9629L15.6429 15.7471L15.929 15.2637C16.6693 14.0142 17.0598 12.5881 17.0589 11.1357V10.3379L17.5999 10.3975ZM18.0286 11.5059C17.9762 12.7903 17.6512 14.0489 17.0755 15.1982C17.1427 15.2052 17.2101 15.209 17.2776 15.209C18.3424 15.2085 19.2058 14.345 19.2054 13.2803C19.205 12.5063 18.7413 11.8077 18.0286 11.5059Z" fill="white"/>
</mask>
<g mask="url(#mask1_207_59)">
<path fill-rule="evenodd" clip-rule="evenodd" d="M12.8704 7.56531H22.9549V18.9583H12.8704V7.56531Z" fill="#0274FF"/>
</g>
<mask id="mask2_207_59" style="mask-type:luminance" maskUnits="userSpaceOnUse" x="3" y="8" width="15" height="12">
<path d="M17.2776 8.672C17.4578 9.37335 17.5487 10.0947 17.5483 10.8188V11.0871C17.5483 14.3192 15.7612 17.1344 13.1224 18.5998V18.8709C13.1224 19.4631 12.6423 19.9431 12.0501 19.9431H8.54758C7.95541 19.9431 7.47537 19.4631 7.47537 18.8709V18.5998C4.83581 17.1344 3.0495 14.3195 3.0495 11.0871V10.8191C3.049 10.0949 3.13995 9.37356 3.32018 8.67221L17.2776 8.672Z" fill="white"/>
</mask>
<g mask="url(#mask2_207_59)">
<path fill-rule="evenodd" clip-rule="evenodd" d="M0.277039 5.89929H20.321V22.7156H0.277039V5.89929Z" fill="#C0E3FF"/>
</g>
<mask id="mask3_207_59" style="mask-type:luminance" maskUnits="userSpaceOnUse" x="9" y="8" width="9" height="12">
<path fill-rule="evenodd" clip-rule="evenodd" d="M11.7671 8.672H17.2776C17.4578 9.37335 17.5487 10.0947 17.5482 10.8188V11.0871C17.5482 14.3192 15.7612 17.1344 13.1224 18.5998V18.8709C13.1224 19.4631 12.6423 19.9431 12.0501 19.9431H9.22522V18.3329C11.3828 15.1615 12.2301 11.9412 11.7671 8.672Z" fill="white"/>
</mask>
<g mask="url(#mask3_207_59)">
<path fill-rule="evenodd" clip-rule="evenodd" d="M6.4527 5.89929H20.3209V22.7156H6.4527V5.89929Z" fill="#6BBEFF"/>
</g>
<path d="M17.7256 8.453C17.9319 9.22552 18.0366 10.0222 18.0361 10.8221V11.0829C18.0372 14.2809 16.3668 17.2428 13.6396 18.8807V18.9745C13.6382 19.836 12.9445 20.5338 12.0889 20.535H5.94727C5.09103 20.5341 4.39643 19.8356 4.39551 18.9735V18.8798C1.66895 17.2419 -0.000707072 14.2805 0 11.0839V10.8221C-0.000345875 10.0217 0.104205 9.22537 0.310547 8.453L0.407227 8.09167H17.6289L17.7256 8.453ZM1.1582 9.06824C1.03225 9.64417 0.968783 10.2324 0.96875 10.8221V11.0829C0.967741 14.0297 2.55629 16.7448 5.11621 18.1727L5.36523 18.3124V18.9745C5.36548 19.2978 5.6261 19.5601 5.94727 19.5604H12.0889C12.41 19.5602 12.6706 19.2978 12.6709 18.9745V18.3124L12.9199 18.1727C15.4795 16.7447 17.0674 14.0301 17.0664 11.0839V10.8202C17.0664 10.2305 17.0031 9.64219 16.877 9.06628L1.1582 9.06824Z" fill="#0274FF"/>
<mask id="mask4_207_59" style="mask-type:luminance" maskUnits="userSpaceOnUse" x="0" y="8" width="19" height="13">
<path d="M17.7256 8.453C17.9319 9.22552 18.0366 10.0222 18.0361 10.8221V11.0829C18.0372 14.2809 16.3668 17.2428 13.6396 18.8807V18.9745C13.6382 19.836 12.9445 20.5338 12.0889 20.535H5.94727C5.09103 20.5341 4.39643 19.8356 4.39551 18.9735V18.8798C1.66895 17.2419 -0.000707072 14.2805 0 11.0839V10.8221C-0.000345875 10.0217 0.104205 9.22537 0.310547 8.453L0.407227 8.09167H17.6289L17.7256 8.453ZM1.1582 9.06824C1.03225 9.64417 0.968783 10.2324 0.96875 10.8221V11.0829C0.967741 14.0297 2.55629 16.7448 5.11621 18.1727L5.36523 18.3124V18.9745C5.36548 19.2978 5.6261 19.5601 5.94727 19.5604H12.0889C12.41 19.5602 12.6706 19.2978 12.6709 18.9745V18.3124L12.9199 18.1727C15.4795 16.7447 17.0674 14.0301 17.0664 11.0839V10.8202C17.0664 10.2305 17.0031 9.64219 16.877 9.06628L1.1582 9.06824Z" fill="white"/>
</mask>
<g mask="url(#mask4_207_59)">
<path fill-rule="evenodd" clip-rule="evenodd" d="M-2.75385 5.31909H20.7896V23.3078H-2.75385V5.31909Z" fill="#0274FF"/>
</g>
<path d="M5.10815 0.128023C5.3069 -0.0538092 5.61564 -0.0403762 5.79761 0.158296C5.97848 0.35578 5.96608 0.662198 5.77026 0.84482C5.10863 1.45572 4.95582 1.83563 4.95581 2.87509C4.95581 3.36354 5.19898 3.80908 5.45679 4.28134C5.52816 4.41171 5.60092 4.54592 5.66968 4.68271C5.8267 4.88786 5.95088 5.16092 6.03784 5.49521C6.11401 5.78885 6.15303 6.09128 6.15503 6.39462C6.1549 7.15903 5.79288 7.93218 5.23218 8.36435C5.14669 8.43035 5.04134 8.46627 4.93335 8.46591C4.66385 8.46612 4.44528 8.24714 4.44507 7.97763C4.44504 7.82638 4.51478 7.68333 4.63452 7.59091C4.95928 7.34074 5.17847 6.85923 5.17847 6.39365C5.1784 5.96373 5.0452 5.45502 4.88159 5.25986C4.85643 5.2299 4.83446 5.19728 4.81714 5.1622C4.75042 5.02663 4.6763 4.89061 4.59839 4.74716C4.30894 4.2152 3.98022 3.6119 3.98022 2.87509C3.98027 1.56795 4.24403 0.926153 5.10815 0.128023ZM8.86694 0.128023C9.06837 -0.0506087 9.3765 -0.0321918 9.55542 0.169039C9.72945 0.364895 9.71784 0.663201 9.52905 0.84482C8.86741 1.45572 8.71461 1.83563 8.7146 2.87509C8.7146 3.36354 8.95777 3.80908 9.21558 4.28134C9.28695 4.41171 9.35971 4.54592 9.42847 4.68271C9.58549 4.88786 9.70967 5.16092 9.79663 5.49521C9.8728 5.78883 9.91183 6.09128 9.91382 6.39462C9.91369 7.15908 9.55149 7.9322 8.99097 8.36435C8.90544 8.43039 8.80018 8.46631 8.69214 8.46591C8.42263 8.46612 8.20407 8.24714 8.20386 7.97763C8.20383 7.82636 8.27353 7.68333 8.39331 7.59091C8.71807 7.34049 8.93628 6.85923 8.93628 6.39365C8.93621 5.96365 8.80304 5.45494 8.6394 5.25986C8.61437 5.23001 8.59317 5.19713 8.57593 5.1622C8.50921 5.02663 8.43508 4.89061 8.35718 4.74716C8.06752 4.21551 7.73912 3.61271 7.73901 2.87607C7.73901 1.56868 8.00273 0.926238 8.86694 0.128023ZM12.6257 0.128023C12.8272 -0.0505771 13.1353 -0.0322149 13.3142 0.169039C13.4882 0.364881 13.4766 0.663198 13.2878 0.84482C12.6262 1.45572 12.4734 1.83563 12.4734 2.87509C12.4734 3.36354 12.7166 3.80908 12.9744 4.28134C13.0457 4.41171 13.1185 4.54592 13.1873 4.68271C13.3443 4.88783 13.4675 5.16098 13.5544 5.49521C13.6306 5.78886 13.6706 6.09126 13.6726 6.39462C13.6725 7.15906 13.3103 7.93219 12.7498 8.36435C12.6643 8.43037 12.559 8.46629 12.4509 8.46591C12.1814 8.46612 11.9629 8.24714 11.9626 7.97763C11.9626 7.82633 12.0323 7.68333 12.1521 7.59091C12.4769 7.34049 12.6951 6.85923 12.6951 6.39365C12.695 5.96365 12.5619 5.45494 12.3982 5.25986C12.3732 5.23001 12.352 5.19714 12.3347 5.1622C12.268 5.02663 12.1939 4.89061 12.116 4.74716C11.8263 4.2155 11.4979 3.61273 11.4978 2.87607C11.4978 1.56868 11.7615 0.926238 12.6257 0.128023Z" fill="#0274FF"/>
<mask id="mask5_207_59" style="mask-type:luminance" maskUnits="userSpaceOnUse" x="3" y="0" width="11" height="9">
<path d="M5.10815 0.128023C5.3069 -0.0538092 5.61564 -0.0403762 5.79761 0.158296C5.97848 0.35578 5.96608 0.662198 5.77026 0.84482C5.10863 1.45572 4.95582 1.83563 4.95581 2.87509C4.95581 3.36354 5.19898 3.80908 5.45679 4.28134C5.52816 4.41171 5.60092 4.54592 5.66968 4.68271C5.8267 4.88786 5.95088 5.16092 6.03784 5.49521C6.11401 5.78885 6.15303 6.09128 6.15503 6.39462C6.1549 7.15903 5.79288 7.93218 5.23218 8.36435C5.14669 8.43035 5.04134 8.46627 4.93335 8.46591C4.66385 8.46612 4.44528 8.24714 4.44507 7.97763C4.44504 7.82638 4.51478 7.68333 4.63452 7.59091C4.95928 7.34074 5.17847 6.85923 5.17847 6.39365C5.1784 5.96373 5.0452 5.45502 4.88159 5.25986C4.85643 5.2299 4.83446 5.19728 4.81714 5.1622C4.75042 5.02663 4.6763 4.89061 4.59839 4.74716C4.30894 4.2152 3.98022 3.6119 3.98022 2.87509C3.98027 1.56795 4.24403 0.926153 5.10815 0.128023ZM8.86694 0.128023C9.06837 -0.0506087 9.3765 -0.0321918 9.55542 0.169039C9.72945 0.364895 9.71784 0.663201 9.52905 0.84482C8.86741 1.45572 8.71461 1.83563 8.7146 2.87509C8.7146 3.36354 8.95777 3.80908 9.21558 4.28134C9.28695 4.41171 9.35971 4.54592 9.42847 4.68271C9.58549 4.88786 9.70967 5.16092 9.79663 5.49521C9.8728 5.78883 9.91183 6.09128 9.91382 6.39462C9.91369 7.15908 9.55149 7.9322 8.99097 8.36435C8.90544 8.43039 8.80018 8.46631 8.69214 8.46591C8.42263 8.46612 8.20407 8.24714 8.20386 7.97763C8.20383 7.82636 8.27353 7.68333 8.39331 7.59091C8.71807 7.34049 8.93628 6.85923 8.93628 6.39365C8.93621 5.96365 8.80304 5.45494 8.6394 5.25986C8.61437 5.23001 8.59317 5.19713 8.57593 5.1622C8.50921 5.02663 8.43508 4.89061 8.35718 4.74716C8.06752 4.21551 7.73912 3.61271 7.73901 2.87607C7.73901 1.56868 8.00273 0.926238 8.86694 0.128023ZM12.6257 0.128023C12.8272 -0.0505771 13.1353 -0.0322149 13.3142 0.169039C13.4882 0.364881 13.4766 0.663198 13.2878 0.84482C12.6262 1.45572 12.4734 1.83563 12.4734 2.87509C12.4734 3.36354 12.7166 3.80908 12.9744 4.28134C13.0457 4.41171 13.1185 4.54592 13.1873 4.68271C13.3443 4.88783 13.4675 5.16098 13.5544 5.49521C13.6306 5.78886 13.6706 6.09126 13.6726 6.39462C13.6725 7.15906 13.3103 7.93219 12.7498 8.36435C12.6643 8.43037 12.559 8.46629 12.4509 8.46591C12.1814 8.46612 11.9629 8.24714 11.9626 7.97763C11.9626 7.82633 12.0323 7.68333 12.1521 7.59091C12.4769 7.34049 12.6951 6.85923 12.6951 6.39365C12.695 5.96365 12.5619 5.45494 12.3982 5.25986C12.3732 5.23001 12.352 5.19714 12.3347 5.1622C12.268 5.02663 12.1939 4.89061 12.116 4.74716C11.8263 4.2155 11.4979 3.61273 11.4978 2.87607C11.4978 1.56868 11.7615 0.926238 12.6257 0.128023Z" fill="white"/>
</mask>
<g mask="url(#mask5_207_59)">
<path fill-rule="evenodd" clip-rule="evenodd" d="M1.20776 -2.77258H16.4453V11.238H1.20776V-2.77258Z" fill="#0274FF"/>
</g>
</svg>
