<svg width="14" height="14" viewBox="0 0 14 14" fill="none" xmlns="http://www.w3.org/2000/svg">
<g clip-path="url(#clip0_215_34567)">
<path d="M12.152 11.2023H11.2373V10.276H12.152C12.404 10.276 12.6093 10.0707 12.6093 9.81868V1.85034C12.6093 1.59834 12.404 1.39301 12.152 1.39301H4.18134C3.92934 1.39301 3.724 1.59834 3.724 1.85034V2.74868H2.79767V1.85034C2.79767 1.08734 3.41834 0.466675 4.179 0.466675H12.1497C12.9127 0.466675 13.5333 1.08734 13.5333 1.85034V9.82101C13.5333 10.5817 12.9127 11.2023 12.152 11.2023Z" fill="#22BF70"/>
<path d="M10.5933 2.42664H1.44667C1.18676 2.42664 0.937488 2.52989 0.753703 2.71367C0.569917 2.89746 0.466667 3.14672 0.466667 3.40664V12.5533C0.466667 12.682 0.492016 12.8094 0.541265 12.9283C0.590515 13.0472 0.662701 13.1553 0.753703 13.2463C0.844704 13.3373 0.952738 13.4095 1.07164 13.4587C1.19054 13.508 1.31797 13.5333 1.44667 13.5333H10.5933C10.722 13.5333 10.8495 13.508 10.9684 13.4587C11.0873 13.4095 11.1953 13.3373 11.2863 13.2463C11.3773 13.1553 11.4495 13.0472 11.4987 12.9283C11.548 12.8094 11.5733 12.682 11.5733 12.5533V3.40664C11.5733 3.14672 11.4701 2.89746 11.2863 2.71367C11.1025 2.52989 10.8532 2.42664 10.5933 2.42664ZM8.16667 8.89697C8.42333 8.89697 8.62867 9.10464 8.62867 9.35897C8.62867 9.6133 8.421 9.8233 8.16667 9.8233H6.48433V10.8943C6.48433 11.151 6.27667 11.3563 6.02233 11.3563C5.768 11.3563 5.56033 11.1486 5.56033 10.8943V9.8233H3.87333C3.61667 9.8233 3.41133 9.61564 3.41133 9.3613C3.41133 9.10697 3.619 8.8993 3.87333 8.8993H5.55567V7.98464H3.87333C3.61667 7.98464 3.41133 7.77697 3.41133 7.52264C3.41133 7.2683 3.619 7.06064 3.87333 7.06064H5.516L3.85233 5.39697C3.67267 5.2173 3.67267 4.9233 3.85233 4.74364C4.032 4.56397 4.326 4.56397 4.50567 4.74364L6.01767 6.25564L7.52967 4.74364C7.70933 4.56397 8.00333 4.56397 8.183 4.74364C8.36267 4.9233 8.36267 5.2173 8.183 5.39697L6.51933 7.06064H8.16667C8.42333 7.06064 8.62867 7.2683 8.62867 7.52264C8.62867 7.77697 8.421 7.98464 8.16667 7.98464H6.48433V8.8993H8.16667V8.89697Z" fill="#22BF70"/>
</g>
<defs>
<clipPath id="clip0_215_34567">
<rect width="14" height="14" fill="white"/>
</clipPath>
</defs>
</svg>
