<svg width="14" height="14" viewBox="0 0 14 14" fill="none" xmlns="http://www.w3.org/2000/svg">
<path d="M2.92639 7.16303H1.29695C0.84753 7.16303 0.482239 7.52833 0.482239 7.97774V11.2366C0.482239 11.686 0.847565 12.0513 1.29695 12.0513H2.92639C3.37581 12.0513 3.7411 11.686 3.7411 11.2366V7.97774C3.7411 7.52833 3.37577 7.16303 2.92639 7.16303ZM7.81471 1.45996H6.18527C5.73585 1.45996 5.37056 1.82529 5.37056 2.27467V11.2366C5.37056 11.686 5.73587 12.0513 6.18527 12.0513H7.81471C8.26413 12.0513 8.62942 11.686 8.62942 11.2366V2.27467C8.62942 1.82525 8.26409 1.45996 7.81471 1.45996ZM12.7031 3.90413H11.0736C10.6242 3.90413 10.2589 4.26944 10.2589 4.71884V11.2366C10.2589 11.686 10.6242 12.0513 11.0736 12.0513H12.7031C13.1525 12.0513 13.5178 11.686 13.5178 11.2366V4.71884C13.5178 4.26942 13.1524 3.90413 12.7031 3.90413Z" fill="#0274FF"/>
</svg>
