<svg width="16" height="16" viewBox="0 0 16 16" fill="none" xmlns="http://www.w3.org/2000/svg">
<path d="M10.8337 1.61719C10.9794 1.61727 11.1193 1.67525 11.2224 1.77832C11.3254 1.88145 11.3835 2.0212 11.3835 2.16699V2.61719H12.5007C13.541 2.61719 14.3835 3.46022 14.3835 4.50195V12.499C14.3833 13.5399 13.5406 14.3838 12.5007 14.3838H3.49969C2.45943 14.3838 1.61699 13.5407 1.61688 12.499V4.50195C1.6169 3.46092 2.4597 2.61719 3.49969 2.61719H4.61688V2.16699C4.61688 2.02112 4.67487 1.88147 4.77802 1.77832C4.88116 1.67518 5.02082 1.61719 5.16669 1.61719C5.31256 1.61719 5.45221 1.67518 5.55536 1.77832C5.6585 1.88147 5.71649 2.02112 5.71649 2.16699V2.61719H10.2829V2.16699C10.2829 2.02128 10.3411 1.88143 10.444 1.77832C10.5472 1.67518 10.6878 1.61719 10.8337 1.61719ZM3.49969 3.7168C3.39683 3.71692 3.29488 3.73788 3.19989 3.77734C3.10495 3.81681 3.01862 3.8745 2.94598 3.94727C2.8733 4.02014 2.81532 4.107 2.77606 4.20215C2.73689 4.29721 2.71635 4.39914 2.71649 4.50195V12.499C2.71626 12.6019 2.73688 12.7037 2.77606 12.7988C2.81527 12.894 2.87233 12.9808 2.94501 13.0537C3.01759 13.1265 3.104 13.1842 3.19891 13.2236C3.29401 13.2631 3.39673 13.2832 3.49969 13.2832H12.5007L12.5778 13.2793C12.6542 13.2716 12.7293 13.2532 12.8005 13.2236C12.8954 13.1842 12.9817 13.1265 13.0544 13.0537C13.1271 12.9808 13.185 12.894 13.2243 12.7988C13.2635 12.7038 13.283 12.6019 13.2829 12.499V4.50195L13.28 4.4248C13.2726 4.34838 13.2536 4.27341 13.2243 4.20215C13.1851 4.10695 13.1271 4.02017 13.0544 3.94727C12.9817 3.87442 12.8955 3.81582 12.8005 3.77637C12.7055 3.73698 12.6035 3.71682 12.5007 3.7168H11.3835V4.16699C11.3835 4.31278 11.3254 4.45253 11.2224 4.55566C11.1193 4.65873 10.9794 4.71671 10.8337 4.7168C10.6878 4.7168 10.5472 4.65881 10.444 4.55566C10.3411 4.45255 10.2829 4.31271 10.2829 4.16699V3.7168H5.71649V4.16699C5.71649 4.31286 5.6585 4.45252 5.55536 4.55566C5.45221 4.65881 5.31256 4.7168 5.16669 4.7168C5.02082 4.7168 4.88116 4.65881 4.77802 4.55566C4.67487 4.45252 4.61688 4.31286 4.61688 4.16699V3.7168H3.49969ZM9.16669 9.61719C9.31256 9.61719 9.45221 9.67518 9.55536 9.77832C9.6585 9.88147 9.71649 10.0211 9.71649 10.167C9.71649 10.3129 9.6585 10.4525 9.55536 10.5557C9.45221 10.6588 9.31256 10.7168 9.16669 10.7168H4.83368C4.68781 10.7168 4.54718 10.6588 4.44403 10.5557C4.34109 10.4526 4.2829 10.3127 4.2829 10.167C4.2829 10.0213 4.34109 9.88143 4.44403 9.77832C4.54718 9.67518 4.68781 9.61719 4.83368 9.61719H9.16669ZM11.1667 7.11719C11.3126 7.11719 11.4522 7.17518 11.5554 7.27832C11.6585 7.38147 11.7165 7.52112 11.7165 7.66699C11.7165 7.81286 11.6585 7.95252 11.5554 8.05566C11.4522 8.15881 11.3126 8.2168 11.1667 8.2168H4.83368C4.68781 8.2168 4.54718 8.15881 4.44403 8.05566C4.34109 7.95255 4.2829 7.81271 4.2829 7.66699C4.2829 7.52128 4.34109 7.38143 4.44403 7.27832C4.54718 7.17518 4.68781 7.11719 4.83368 7.11719H11.1667Z" fill="#4D5F78" stroke="#4D5F78" stroke-width="0.1"/>
</svg>
