<svg width="20" height="20" viewBox="0 0 20 20" fill="none" xmlns="http://www.w3.org/2000/svg">
<g clip-path="url(#clip0_214_33757)">
<path d="M10 0C4.47136 0 0 4.47136 0 10C0 15.5286 4.47136 20 10 20C15.5286 20 20 15.5286 20 10C20 4.47136 15.5284 0 10 0ZM10 15.7141C9.21431 15.7141 8.57136 15.0714 8.57136 14.2854C8.57136 13.4998 9.21431 12.8568 10 12.8568C10.7857 12.8568 11.4286 13.4996 11.4286 14.2854C11.4286 15.0714 10.7857 15.7141 10 15.7141V15.7141ZM11.4286 10C11.4286 10.7857 10.7857 11.4286 10 11.4286C9.21431 11.4286 8.57136 10.7857 8.57136 10V5.71431C8.57136 4.92864 9.21431 4.28591 10 4.28591C10.7857 4.28591 11.4286 4.92864 11.4286 5.71431V10Z" fill="#EE1A20"/>
</g>
<defs>
<clipPath id="clip0_214_33757">
<rect width="20" height="20" fill="white"/>
</clipPath>
</defs>
</svg>
