<svg width="20" height="20" viewBox="0 0 20 20" fill="none" xmlns="http://www.w3.org/2000/svg">
<path d="M19.5741 16.3927L11.7345 2.81531C10.7756 1.15531 9.20848 1.15531 8.24984 2.81531L0.410168 16.3927C-0.548479 18.0544 0.235796 19.41 2.15175 19.41H17.8325C19.7485 19.4099 20.532 18.0543 19.5741 16.3927ZM8.91537 6.66777C9.19709 6.36318 9.55525 6.21086 9.99206 6.21086C10.4291 6.21086 10.7869 6.36158 11.0689 6.66168C11.3491 6.96245 11.4892 7.3386 11.4892 7.79092C11.4892 8.18009 10.9043 11.0418 10.7093 13.1237H9.30067C9.12959 11.0418 8.49502 8.18009 8.49502 7.79092C8.49506 7.34547 8.63533 6.97086 8.91537 6.66777ZM11.0492 16.5672C10.7529 16.8558 10.4003 16.9996 9.99216 16.9996C9.58413 16.9996 9.23143 16.8558 8.93516 16.5672C8.6397 16.2793 8.49286 15.9306 8.49286 15.521C8.49286 15.1135 8.6397 14.761 8.93516 14.4656C9.23143 14.17 9.58413 14.0222 9.99216 14.0222C10.4003 14.0222 10.7529 14.17 11.0492 14.4656C11.3445 14.761 11.4917 15.1135 11.4917 15.521C11.4917 15.9306 11.3445 16.2793 11.0492 16.5672Z" fill="#FA8306"/>
</svg>
