<svg width="20" height="20" viewBox="0 0 20 20" fill="none" xmlns="http://www.w3.org/2000/svg">
<g clip-path="url(#clip0_214_33750)">
<path d="M10 0C4.47715 0 0 4.47715 0 10C0 15.5229 4.47715 20 10 20C15.5229 20 20 15.5229 20 10C20 4.47715 15.5229 0 10 0ZM15.1278 7.44955L9.05111 13.5262C8.97904 13.5985 8.89206 13.654 8.79625 13.6891C8.54146 13.7943 8.23742 13.7435 8.03035 13.5364L4.88152 10.3876C4.60693 10.113 4.60693 9.66783 4.88152 9.39324C5.15611 9.11865 5.60131 9.11865 5.8759 9.39324L8.53564 12.053L14.1335 6.45518C14.408 6.18059 14.8532 6.18059 15.1278 6.45518C15.4024 6.72977 15.4024 7.17496 15.1278 7.44955Z" fill="#06B563"/>
</g>
<defs>
<clipPath id="clip0_214_33750">
<rect width="20" height="20" fill="white"/>
</clipPath>
</defs>
</svg>
