<svg width="48" height="48" viewBox="0 0 48 48" fill="none" xmlns="http://www.w3.org/2000/svg">
<path d="M36.7634 29.9991H34.9962V26.0518C34.9962 24.961 34.0658 24.0734 32.9262 24.0734H24.9647V20.0011H27.7965C28.4834 20.0011 29.0454 19.4386 29.0454 18.751V11.2501C29.0454 10.5626 28.4834 10 27.7965 10H20.3032C19.6163 10 19.0543 10.5626 19.0543 11.2501V18.751C19.0543 19.4386 19.6163 20.0011 20.3032 20.0011H23.0289V24.0734H15.1141C13.9714 24.0734 13.0441 24.961 13.0441 26.0518V29.9991H11.2489C10.562 29.9991 10 30.5617 10 31.2492V36.7499C10 37.4374 10.562 38 11.2489 38H16.7439C17.4308 38 17.9928 37.4374 17.9928 36.7499V31.2492C17.9928 30.5617 17.4308 29.9991 16.7439 29.9991H14.9768V26.0643C14.9893 26.0455 15.0361 26.0112 15.111 26.0112H23.0258V29.9991H21.268C20.5811 29.9991 20.0191 30.5617 20.0191 31.2492V36.7499C20.0191 37.4374 20.5811 38 21.268 38H26.763C27.4499 38 28.0119 37.4374 28.0119 36.7499V31.2492C28.0119 30.5617 27.4499 29.9991 26.763 29.9991H24.9584V26.0112H32.9169C32.9918 26.0112 33.0386 26.0455 33.0511 26.0643V29.9991H31.2559C30.569 29.9991 30.007 30.5617 30.007 31.2492V36.7499C30.007 37.4374 30.569 38 31.2559 38H36.7509C37.4378 38 37.9998 37.4374 37.9998 36.7499V31.2492C38.0123 30.5617 37.4503 29.9991 36.7634 29.9991Z" fill="white"/>
</svg>
