<svg width="48" height="48" viewBox="0 0 48 48" fill="none" xmlns="http://www.w3.org/2000/svg">
<path d="M39.7496 17.6605C39.8153 17.7753 39.8577 17.902 39.8744 18.0333C39.8911 18.1646 39.8817 18.298 39.8469 18.4257C39.812 18.5533 39.7524 18.6729 39.6713 18.7773C39.5903 18.8818 39.4895 18.9691 39.3747 19.0343L36.1414 20.9072L35.1456 19.159L38.2571 17.2861C38.492 17.1842 38.748 17.1413 39.0031 17.1609C39.1547 17.1894 39.2989 17.2483 39.4272 17.3341C39.5555 17.42 39.6652 17.531 39.7496 17.6605ZM10.1342 17.6605C10.2818 17.43 10.5002 17.2545 10.7565 17.1609C10.8818 17.1203 11.015 17.1105 11.1449 17.1323C11.2748 17.154 11.3976 17.2068 11.503 17.2861L14.6145 19.159L13.6187 20.9072L10.5077 19.0343C10.3929 18.9691 10.2921 18.8818 10.2111 18.7773C10.13 18.6729 10.0704 18.5533 10.0355 18.4257C10.0007 18.298 9.99135 18.1646 10.008 18.0333C10.0247 17.902 10.0671 17.7753 10.1328 17.6605H10.1342ZM16.3563 11.4166C16.5913 11.3148 16.8475 11.2718 17.1027 11.2915C17.3592 11.3849 17.5779 11.5604 17.725 11.791L19.5919 14.9132L17.8497 15.9122L15.9833 12.79C15.9177 12.6752 15.8753 12.5486 15.8587 12.4173C15.842 12.286 15.8514 12.1527 15.8862 12.0251C15.921 11.8975 15.9807 11.778 16.0617 11.6736C16.1426 11.5692 16.2434 11.4818 16.3581 11.4166H16.3563ZM25.0562 9C25.3484 9.00038 25.6307 9.10575 25.8522 9.29703C26.0736 9.48831 26.2195 9.75285 26.2634 10.0428V13.6644H23.9382V10.0428C23.8135 9.54325 24.4339 9 25.0562 9ZM33.4048 11.4166C33.5195 11.4818 33.6203 11.5692 33.7013 11.6736C33.7822 11.778 33.8419 11.8975 33.8767 12.0251C33.9115 12.1527 33.9209 12.286 33.9042 12.4173C33.8876 12.5486 33.8453 12.6752 33.7797 12.79L31.9132 15.9122L30.171 14.9132L32.0374 11.791C32.2126 11.5876 32.4235 11.4183 32.6597 11.2915C32.9085 11.2915 33.282 11.2915 33.4062 11.4166H33.4048ZM25.6879 20.6556L20.5858 29.1312H24.6921L23.6964 35.1469L29.0421 26.8002H24.6921L25.6879 20.6556ZM16.7283 36.6323H14.5939V26.7748C14.644 21.0832 19.2709 16.5043 24.9414 16.5349C26.2822 16.5304 27.6105 16.7923 28.85 17.3053C30.0895 17.8183 31.2156 18.5725 32.1635 19.5242C33.1114 20.476 33.8623 21.6066 34.373 22.8509C34.8837 24.0952 35.144 25.4286 35.1391 26.7743V36.6318H16.7283V36.6323ZM11.1286 36.6323H38.8799C39.1888 36.6585 39.4763 36.8015 39.6843 37.0323C39.8922 37.2632 40.005 37.5647 39.9998 37.8759C40.0003 38.0236 39.9717 38.17 39.9156 38.3066C39.8595 38.4432 39.777 38.5674 39.6729 38.6718C39.5688 38.7763 39.4452 38.8591 39.3091 38.9154C39.1729 38.9717 39.0271 39.0005 38.8799 39H11.1295C10.9823 39.0006 10.8364 38.972 10.7002 38.9157C10.564 38.8594 10.4403 38.7766 10.3362 38.6721C10.2321 38.5676 10.1496 38.4434 10.0936 38.3068C10.0375 38.1701 10.0089 38.0237 10.0096 37.8759C10.0044 37.5647 10.1172 37.2632 10.3251 37.0323C10.533 36.8015 10.8206 36.6585 11.1295 36.6323" fill="white"/>
</svg>
