<svg width="48" height="48" viewBox="0 0 48 48" fill="none" xmlns="http://www.w3.org/2000/svg">
<path d="M9.66664 25.67C9.57969 25.6693 9.49345 25.6855 9.41286 25.7177C9.33227 25.7499 9.25892 25.7974 9.197 25.8575C9.13508 25.9176 9.08581 25.9891 9.052 26.068C9.0182 26.1469 9.00053 26.2316 9 26.3172V35.3546C9.00154 35.5272 9.07262 35.6922 9.19763 35.8132C9.32264 35.9342 9.49133 36.0014 9.66664 36H10.9999C12.1028 36 12.9998 35.1313 12.9998 34.0617V33.4176H20.3329C20.9997 33.4223 21.6525 33.2285 22.2056 32.8618C22.7588 32.495 23.1866 31.9723 23.433 31.3621C23.4809 31.2437 23.4916 31.1139 23.4637 30.9894C23.4359 30.8649 23.3708 30.7515 23.2768 30.6639C23.1822 30.575 23.0634 30.5152 22.9348 30.4917C22.8063 30.4683 22.6736 30.4822 22.5529 30.5317C22.0606 30.7331 21.5326 30.836 20.9995 30.8343C20.2482 30.838 19.5113 30.6317 18.8744 30.2395C18.2374 29.8472 17.7265 29.2852 17.401 28.6185C17.3453 28.5083 17.2596 28.4157 17.1533 28.3509C17.0471 28.2862 16.9246 28.2519 16.7997 28.252H12.9998V27.6066C12.9998 26.5388 12.105 25.6683 10.9999 25.6683L9.66664 25.67ZM9.29753 19.2106C9.10403 19.5143 9.00095 19.8653 9 20.2238V20.504C9.00263 20.8705 9.11042 21.2288 9.31093 21.5376C9.51145 21.8464 9.79652 22.0932 10.1333 22.2493L18.4998 26.1498C18.3862 26.4048 18.3297 26.681 18.3343 26.9595C18.3343 28.3832 19.5302 29.5414 21.0008 29.5414C21.4702 29.5418 21.9314 29.421 22.3385 29.1911C22.7456 28.9612 23.0844 28.6303 23.3211 28.2313L27.3778 30.1225C27.4684 30.1642 27.5672 30.1859 27.6672 30.1859C27.8151 30.1863 27.9591 30.1386 28.0766 30.0502L33.7457 25.7819L37.3697 27.5366C37.4804 27.5905 37.604 27.6134 37.7269 27.6027C37.8499 27.592 37.9675 27.548 38.0668 27.4758L40.2 25.9264C40.5987 25.6393 40.8725 25.2145 40.9664 24.737C40.9887 24.6708 41 24.6015 41 24.5317V24.3788C40.9997 24.2889 40.9802 24.2001 40.9427 24.1181C40.8795 23.8349 40.7524 23.5694 40.5708 23.3412C40.3892 23.1131 40.1577 22.9281 39.8936 22.8L18.5728 12.478C17.9252 12.162 17.2119 11.9984 16.4892 12C14.8557 12 13.3689 12.8044 12.5131 14.1511L9.29753 19.2106ZM29.9629 30.2973C29.8684 30.3573 29.7914 30.4404 29.7393 30.5385C29.6872 30.6366 29.6619 30.7463 29.6658 30.8569C29.6697 30.9675 29.7028 31.0752 29.7617 31.1695C29.8206 31.2638 29.9033 31.3414 30.0018 31.3947L34.6683 33.9766C34.7691 34.0327 34.8831 34.0622 34.9989 34.0621C35.0643 34.0621 35.1294 34.0529 35.1922 34.0348C35.2784 34.0095 35.3585 33.9674 35.4277 33.9108C35.4969 33.8542 35.5538 33.7845 35.5949 33.7057L37.5984 29.8321C37.6372 29.7561 37.6603 29.6732 37.6663 29.5882C37.6723 29.5033 37.6611 29.418 37.6333 29.3374C37.6054 29.2568 37.5616 29.1825 37.5043 29.1187C37.447 29.0549 37.3774 29.0031 37.2995 28.9661L34.6334 27.6749C34.5281 27.6239 34.4111 27.6008 34.294 27.6078C34.1769 27.6149 34.0636 27.6518 33.9654 27.715L29.9651 30.2973H29.9629Z" fill="white"/>
</svg>
