<svg width="21" height="25" viewBox="0 0 21 25" fill="none" xmlns="http://www.w3.org/2000/svg">
<path d="M19.8699 3.59435C16.7333 3.45544 13.7305 2.37359 10.9441 0.377789L10.4159 0L9.88919 0.377789C7.1045 2.37325 4.10138 3.45544 0.984545 3.59366H0V12.0533C0 18.25 4.19117 23.5564 10.1927 24.9572L10.4546 25L10.6427 24.9572C16.6428 23.5564 20.8333 18.25 20.8333 12.0533V3.59366L19.8699 3.59435Z" fill="#136AF8"/>
<path d="M9.88919 0.377789L10.4159 0L10.4546 25L10.1927 24.9572C4.19117 23.5564 0 18.25 0 12.0533V3.59366H0.984545C4.10138 3.45544 7.1045 2.37325 9.88919 0.377789Z" fill="#649FFF"/>
<path d="M15.3323 8.03418C15.5457 8.03425 15.7406 8.12877 15.8919 8.2832C16.0433 8.43782 16.1331 8.63406 16.1331 8.8457C16.1331 9.05689 16.0427 9.25179 15.8919 9.40625L15.8929 9.40723L9.4632 16.043L9.25616 16.2568L9.04132 16.0508L5.79132 12.9453L5.78448 12.9385C5.45796 12.6051 5.48802 12.1715 5.66046 11.8193L5.69562 11.748L5.76105 11.7041C5.89251 11.6146 6.06348 11.5344 6.25323 11.5205C6.45125 11.5061 6.65668 11.5663 6.8255 11.7334H6.82648L9.30402 14.0684L14.7679 8.28711L14.7718 8.2832C14.9231 8.12871 15.1189 8.03418 15.3323 8.03418Z" fill="white" stroke="white" stroke-width="0.6"/>
</svg>
