<svg width="16" height="16" viewBox="0 0 16 16" fill="none" xmlns="http://www.w3.org/2000/svg">
<path d="M10.8336 1.61694C10.9794 1.61703 11.1193 1.67501 11.2223 1.77808C11.3254 1.88121 11.3835 2.02096 11.3835 2.16675V2.61694H12.5006C13.541 2.61694 14.3835 3.45998 14.3835 4.50171V12.4988C14.3833 13.5397 13.5405 14.3835 12.5006 14.3835H3.49966C2.4594 14.3835 1.61696 13.5404 1.61685 12.4988V4.50171C1.61687 3.46067 2.45967 2.61694 3.49966 2.61694H4.61685V2.16675C4.61685 2.02088 4.67484 1.88122 4.77798 1.77808C4.88113 1.67493 5.02079 1.61694 5.16666 1.61694C5.31253 1.61694 5.45218 1.67493 5.55533 1.77808C5.65847 1.88122 5.71646 2.02088 5.71646 2.16675V2.61694H10.2829V2.16675C10.2829 2.02103 10.3411 1.88119 10.444 1.77808C10.5471 1.67493 10.6878 1.61694 10.8336 1.61694ZM3.49966 3.71655C3.3968 3.71668 3.29485 3.73764 3.19986 3.7771C3.10492 3.81656 3.01859 3.87426 2.94595 3.94702C2.87327 4.0199 2.81529 4.10676 2.77603 4.2019C2.73685 4.29696 2.71632 4.39889 2.71646 4.50171V12.4988C2.71622 12.6017 2.73685 12.7035 2.77603 12.7986C2.81524 12.8938 2.8723 12.9806 2.94498 13.0535C3.01756 13.1263 3.10397 13.1839 3.19888 13.2234C3.29398 13.2629 3.3967 13.2829 3.49966 13.283H12.5006L12.5778 13.2791C12.6542 13.2714 12.7293 13.253 12.8004 13.2234C12.8954 13.1839 12.9817 13.1262 13.0544 13.0535C13.127 12.9806 13.185 12.8937 13.2243 12.7986C13.2635 12.7035 13.283 12.6016 13.2829 12.4988V4.50171L13.2799 4.42456C13.2726 4.34813 13.2536 4.27317 13.2243 4.2019C13.1851 4.1067 13.1271 4.01993 13.0544 3.94702C12.9817 3.87417 12.8955 3.81558 12.8004 3.77612C12.7054 3.73674 12.6035 3.71657 12.5006 3.71655H11.3835V4.16675C11.3835 4.31254 11.3254 4.45229 11.2223 4.55542C11.1193 4.65849 10.9794 4.71647 10.8336 4.71655C10.6878 4.71655 10.5471 4.65856 10.444 4.55542C10.3411 4.45231 10.2829 4.31246 10.2829 4.16675V3.71655H5.71646V4.16675C5.71646 4.31262 5.65847 4.45227 5.55533 4.55542C5.45218 4.65856 5.31253 4.71655 5.16666 4.71655C5.02079 4.71655 4.88113 4.65856 4.77798 4.55542C4.67484 4.45227 4.61685 4.31262 4.61685 4.16675V3.71655H3.49966ZM9.16666 9.61694C9.31253 9.61694 9.45218 9.67493 9.55533 9.77808C9.65847 9.88122 9.71646 10.0209 9.71646 10.1667C9.71646 10.3126 9.65847 10.4523 9.55533 10.5554C9.45218 10.6586 9.31253 10.7166 9.16666 10.7166H4.83365C4.68778 10.7166 4.54715 10.6586 4.444 10.5554C4.34106 10.4523 4.28287 10.3125 4.28287 10.1667C4.28287 10.021 4.34106 9.88119 4.444 9.77808C4.54715 9.67493 4.68778 9.61694 4.83365 9.61694H9.16666ZM11.1667 7.11694C11.3125 7.11694 11.4522 7.17493 11.5553 7.27808C11.6585 7.38122 11.7165 7.52088 11.7165 7.66675C11.7165 7.81262 11.6585 7.95228 11.5553 8.05542C11.4522 8.15856 11.3125 8.21655 11.1667 8.21655H4.83365C4.68778 8.21655 4.54715 8.15856 4.444 8.05542C4.34106 7.95231 4.28287 7.81246 4.28287 7.66675C4.28287 7.52103 4.34106 7.38119 4.444 7.27808C4.54715 7.17493 4.68778 7.11694 4.83365 7.11694H11.1667Z" fill="#136AF8" stroke="#136AF8" stroke-width="0.1"/>
</svg>
