<svg width="48" height="48" viewBox="0 0 48 48" fill="none" xmlns="http://www.w3.org/2000/svg">
<path d="M18.3341 41.9972L17.0199 37.8835L15.2683 37.2215L12.1299 38.6181L6 29.362L8.33551 25.8186L9.13842 23.1904L6 20.5469L11.6198 10.9225L15.7075 12.0248L17.6781 10.9225L18.8459 6H29.354L29.9379 8.86844L30.5944 10.7807L32.9294 13.2785L35.6292 11.2965L36.4321 10.4877L43 20.1841L39.4973 23.1229L39.2783 25.8226L43 29.2186L37.0897 38.8408L32.7874 36.7097L30.3782 38.8408L30.3044 42L18.3341 41.9972ZM34.5704 24.484C34.5704 18.7848 29.9804 14.1649 24.3187 14.1649C21.5998 14.1649 18.9922 15.2522 17.0697 17.1875C15.1471 19.1228 14.067 21.7476 14.067 24.4845C14.0637 26.5521 14.6805 28.5726 15.8365 30.2816L23.4202 23.4761C23.4202 20.6122 17.582 19.3624 17.582 19.3624C24.4422 14.1464 33.1266 26.709 33.1266 26.709L29.3317 30.2349L26.2664 25.8276L19.2409 33.4543C20.7868 34.3436 22.537 34.8102 24.3176 34.8075C25.6643 34.8077 26.9978 34.5407 28.242 34.0219C29.4861 33.5032 30.6166 32.7427 31.5687 31.784C32.5208 30.8253 33.276 29.6872 33.791 28.4346C34.3061 27.182 34.5709 25.8396 34.5704 24.484Z" fill="white"/>
</svg>
