<svg width="48" height="48" viewBox="0 0 48 48" fill="none" xmlns="http://www.w3.org/2000/svg">
<path d="M13.8217 14.3986C13.8217 16.6261 14.7065 18.7623 16.2816 20.3374C17.8566 21.9124 19.9928 22.7973 22.2203 22.7973C24.4478 22.7973 26.584 21.9124 28.159 20.3374C29.7341 18.7623 30.619 16.6261 30.619 14.3986C30.619 12.1712 29.7341 10.035 28.159 8.4599C26.584 6.88485 24.4478 6 22.2203 6C19.9928 6 17.8566 6.88485 16.2816 8.4599C14.7065 10.035 13.8217 12.1712 13.8217 14.3986Z" fill="white"/>
<path d="M18.4792 26.7174H22.6362C22.9062 26.7174 23.1897 26.7237 23.4624 26.7453C22.1782 28.9824 21.5647 31.5417 21.6949 34.1179C21.8251 36.6941 22.6936 39.1784 24.1968 41.2747H8.07896C7.52766 41.2744 6.99901 41.0553 6.60918 40.6655C6.21935 40.2757 6.00024 39.747 6 39.1957C5.99976 37.5569 6.32239 35.9341 6.94946 34.42C7.57652 32.9059 8.49574 31.5302 9.65459 30.3714C10.8135 29.2126 12.1892 28.2935 13.7034 27.6666C15.2175 27.0396 16.8404 26.7171 18.4792 26.7174ZM33.5422 24.8716C31.8484 24.8718 30.1927 25.3742 28.7844 26.3154C27.3762 27.2565 26.2786 28.5941 25.6305 30.159C24.9825 31.724 24.813 33.4459 25.1435 35.1072C25.4741 36.7684 26.2898 38.2943 27.4876 39.492C28.6854 40.6896 30.2114 41.5052 31.8726 41.8355C33.5339 42.1659 35.2559 41.9963 36.8207 41.348C38.3856 40.6998 39.7231 39.6021 40.6641 38.1937C41.6051 36.7854 42.1074 35.1296 42.1074 33.4358C42.1067 31.1645 41.204 28.9864 39.5978 27.3805C37.9917 25.7745 35.8135 24.8721 33.5422 24.8716ZM35.8435 35.4824H32.9896C32.7374 35.4817 32.4957 35.3811 32.3174 35.2026C32.1392 35.0242 32.0388 34.7824 32.0383 34.5302V30.7242C32.0383 30.4719 32.1386 30.2299 32.317 30.0515C32.4954 29.8731 32.7373 29.7729 32.9896 29.7729C33.2419 29.7729 33.4839 29.8731 33.6623 30.0515C33.8407 30.2299 33.9409 30.4719 33.9409 30.7242V33.5789H35.8435C36.0908 33.5865 36.3255 33.6901 36.4978 33.8678C36.67 34.0454 36.7664 34.2832 36.7664 34.5306C36.7664 34.7781 36.67 35.0159 36.4978 35.1935C36.3255 35.3712 36.0908 35.4748 35.8435 35.4824Z" fill="white"/>
</svg>
