<svg width="48" height="48" viewBox="0 0 48 48" fill="none" xmlns="http://www.w3.org/2000/svg">
<path d="M33.3649 22.2852L14.457 43L19.966 26.2895C19.9805 26.2447 19.9843 26.197 19.977 26.1504C19.9697 26.1038 19.9515 26.0596 19.924 26.0216C19.8964 25.9835 19.8603 25.9526 19.8186 25.9315C19.7769 25.9103 19.7308 25.8995 19.6842 25.9H14.349C12.6442 25.9 11.5076 24.114 12.2121 22.5417L19.4681 6.39175C19.8485 5.54625 20.6845 5 21.605 5H37L29.7393 17.8535C29.714 17.8987 29.7008 17.9498 29.701 18.0018C29.7011 18.0538 29.7147 18.1048 29.7403 18.1498C29.7659 18.1949 29.8026 18.2324 29.8469 18.2588C29.8912 18.2851 29.9415 18.2993 29.9929 18.3H31.6366C33.6843 18.3 34.7504 20.7653 33.3649 22.2852Z" fill="white"/>
</svg>
