<svg width="22" height="22" viewBox="0 0 22 22" fill="none" xmlns="http://www.w3.org/2000/svg">
<path d="M14.5996 2C15.3452 2 15.9502 2.58725 15.9502 3.31152V4.19531H18.6494C19.3949 4.19525 20 4.78252 20 5.50684V18.6885C20 19.4128 19.3951 20 18.6494 20H3.34961C2.6042 19.9998 2 19.4127 2 18.6885V5.50684C2 4.78268 2.6042 4.19551 3.34961 4.19531H6.0498V3.31152C6.0498 2.58725 6.65478 2 7.40039 2C8.14573 2.00023 8.75 2.58739 8.75 3.31152V4.19531H13.25V3.31152C13.25 2.58733 13.8542 2.00014 14.5996 2ZM7.50977 13.4209C6.94275 13.4769 6.50026 13.9422 6.5 14.5078V14.5166C6.5 15.1204 7.00347 15.6094 7.625 15.6094H10.7754C11.3965 15.6091 11.9004 15.12 11.9004 14.5166V14.5078C11.9004 13.9044 11.3965 13.4152 10.7754 13.415H7.625L7.50977 13.4209ZM7.625 9.3877C7.0039 9.38774 6.50038 9.87715 6.5 10.4805V10.4912C6.50019 11.0943 7.00359 11.584 7.625 11.584H14.375C14.9962 11.5839 15.4998 11.0946 15.5 10.4912V10.4805C15.4999 9.87697 14.9962 9.38776 14.375 9.3877H7.625Z" fill="#64748B"/>
<mask id="mask0_187_1197" style="mask-type:luminance" maskUnits="userSpaceOnUse" x="2" y="2" width="18" height="18">
<path d="M14.5996 2C15.3452 2 15.9502 2.58725 15.9502 3.31152V4.19531H18.6494C19.3949 4.19525 20 4.78252 20 5.50684V18.6885C20 19.4128 19.3951 20 18.6494 20H3.34961C2.6042 19.9998 2 19.4127 2 18.6885V5.50684C2 4.78268 2.6042 4.19551 3.34961 4.19531H6.0498V3.31152C6.0498 2.58725 6.65478 2 7.40039 2C8.14573 2.00023 8.75 2.58739 8.75 3.31152V4.19531H13.25V3.31152C13.25 2.58733 13.8542 2.00014 14.5996 2ZM7.50977 13.4209C6.94275 13.4769 6.50026 13.9422 6.5 14.5078V14.5166C6.5 15.1204 7.00347 15.6094 7.625 15.6094H10.7754C11.3965 15.6091 11.9004 15.12 11.9004 14.5166V14.5078C11.9004 13.9044 11.3965 13.4152 10.7754 13.415H7.625L7.50977 13.4209ZM7.625 9.3877C7.0039 9.38774 6.50038 9.87715 6.5 10.4805V10.4912C6.50019 11.0943 7.00359 11.584 7.625 11.584H14.375C14.9962 11.5839 15.4998 11.0946 15.5 10.4912V10.4805C15.4999 9.87697 14.9962 9.38776 14.375 9.3877H7.625Z" fill="white"/>
</mask>
<g mask="url(#mask0_187_1197)">
<path fill-rule="evenodd" clip-rule="evenodd" d="M-1.46143 -1.33337H23.4614V23.3332H-1.46143V-1.33337Z" fill="#64748B"/>
</g>
</svg>
