<svg width="22" height="22" viewBox="0 0 22 22" fill="none" xmlns="http://www.w3.org/2000/svg">
<path d="M19.1504 5.11523C19.622 5.12052 20.0015 5.50796 20 5.98242V18.917C20.0015 19.3918 19.6221 19.7793 19.1504 19.7852H2.84961C2.3821 19.7852 2 19.3957 2 18.917V5.98242C1.99922 5.50825 2.37834 5.12126 2.84961 5.11523H19.1504ZM13.3252 7.67285C12.9531 7.47416 12.4716 7.65356 12.2549 8.07715L11.8604 8.84961C11.8535 8.85919 11.8453 8.87163 11.8398 8.88672L11.4316 9.67871H11.4277L11.0146 10.4824L10.6016 9.67871H10.5977L10.1904 8.88672L10.1689 8.84961L9.77344 8.0791C9.55681 7.65964 9.07577 7.47433 8.70508 7.67285C8.33444 7.87299 8.2097 8.37771 8.42481 8.80273L8.91699 9.76465L9.33399 10.5762H8.20996C7.74246 10.5762 7.36035 10.9274 7.36035 11.3525C7.36058 11.7788 7.74395 12.1279 8.20996 12.1279H10.2412V13.2461H8.20996C7.74246 13.2461 7.36035 13.596 7.36035 14.0225C7.36061 14.4486 7.74373 14.7977 8.21094 14.7979H10.2422V16.6738C10.2422 17.1497 10.5845 17.542 11.0029 17.542C11.4199 17.5419 11.7617 17.1524 11.7617 16.6738V14.7959H13.7969C14.2643 14.7959 14.6463 14.4459 14.6465 14.0195C14.6465 13.5931 14.263 13.2441 13.7969 13.2441V13.2422H11.7607V12.1279H13.7969C14.2656 12.1279 14.6472 11.7775 14.6475 11.3525C14.6475 10.9261 14.263 10.5762 13.7969 10.5762H12.6953L13.1123 9.76465L13.6045 8.80273C13.8212 8.37765 13.6959 7.87305 13.3252 7.67285ZM17.8115 2C18.2787 2.00024 18.6602 2.35434 18.6602 2.7793C18.6599 3.20543 18.2772 3.55445 17.8115 3.55469H4.23633V3.55664C3.76899 3.55644 3.38847 3.20351 3.38574 2.77441C3.38595 2.34812 3.76933 2 4.23535 2H17.8115Z" fill="#64748B"/>
<mask id="mask0_187_1179" style="mask-type:luminance" maskUnits="userSpaceOnUse" x="2" y="2" width="18" height="18">
<path d="M19.1504 5.11523C19.622 5.12052 20.0015 5.50796 20 5.98242V18.917C20.0015 19.3918 19.6221 19.7793 19.1504 19.7852H2.84961C2.3821 19.7852 2 19.3957 2 18.917V5.98242C1.99922 5.50825 2.37834 5.12126 2.84961 5.11523H19.1504ZM13.3252 7.67285C12.9531 7.47416 12.4716 7.65356 12.2549 8.07715L11.8604 8.84961C11.8535 8.85919 11.8453 8.87163 11.8398 8.88672L11.4316 9.67871H11.4277L11.0146 10.4824L10.6016 9.67871H10.5977L10.1904 8.88672L10.1689 8.84961L9.77344 8.0791C9.55681 7.65964 9.07577 7.47433 8.70508 7.67285C8.33444 7.87299 8.2097 8.37771 8.42481 8.80273L8.91699 9.76465L9.33399 10.5762H8.20996C7.74246 10.5762 7.36035 10.9274 7.36035 11.3525C7.36058 11.7788 7.74395 12.1279 8.20996 12.1279H10.2412V13.2461H8.20996C7.74246 13.2461 7.36035 13.596 7.36035 14.0225C7.36061 14.4486 7.74373 14.7977 8.21094 14.7979H10.2422V16.6738C10.2422 17.1497 10.5845 17.542 11.0029 17.542C11.4199 17.5419 11.7617 17.1524 11.7617 16.6738V14.7959H13.7969C14.2643 14.7959 14.6463 14.4459 14.6465 14.0195C14.6465 13.5931 14.263 13.2441 13.7969 13.2441V13.2422H11.7607V12.1279H13.7969C14.2656 12.1279 14.6472 11.7775 14.6475 11.3525C14.6475 10.9261 14.263 10.5762 13.7969 10.5762H12.6953L13.1123 9.76465L13.6045 8.80273C13.8212 8.37765 13.6959 7.87305 13.3252 7.67285ZM17.8115 2C18.2787 2.00024 18.6602 2.35434 18.6602 2.7793C18.6599 3.20543 18.2772 3.55445 17.8115 3.55469H4.23633V3.55664C3.76899 3.55644 3.38847 3.20351 3.38574 2.77441C3.38595 2.34812 3.76933 2 4.23535 2H17.8115Z" fill="white"/>
</mask>
<g mask="url(#mask0_187_1179)">
<path fill-rule="evenodd" clip-rule="evenodd" d="M-0.168701 -0.181641H22.1681V21.9671H-0.168701V-0.181641Z" fill="#64748B"/>
</g>
</svg>
