<svg width="14" height="14" viewBox="0 0 14 14" fill="none" xmlns="http://www.w3.org/2000/svg">
<path d="M11.27 0.466675H2.73C2.05334 0.466675 1.51667 1.09667 1.51667 1.84334V12.1567C1.51667 12.9267 2.05334 13.5333 2.73 13.5333H11.2933C11.9467 13.5333 12.5067 12.9033 12.5067 12.1567V1.84334C12.4833 1.09667 11.9467 0.466675 11.27 0.466675ZM3.78 2.98667H8.05C8.30667 2.98667 8.51667 3.19667 8.51667 3.45334C8.51667 3.71001 8.30667 3.92001 8.05 3.92001H3.78C3.52334 3.92001 3.31334 3.71001 3.31334 3.45334C3.31334 3.19667 3.52334 2.98668 3.78 2.98667ZM3.31334 5.50667C3.31334 5.25001 3.52334 5.04001 3.78 5.04001H8.05C8.30667 5.04001 8.51667 5.25001 8.51667 5.50667C8.51667 5.76334 8.30667 5.97334 8.05 5.97334H3.78C3.52334 5.97334 3.31334 5.78667 3.31334 5.50667ZM10.5 9.47334L9.73 10.0333L10.0333 10.9667C10.1033 11.1533 10.0333 11.3633 9.87 11.5033C9.70667 11.62 9.47334 11.62 9.31 11.5033L8.54 10.9433L7.77 11.5033C7.67667 11.5733 7.58334 11.5967 7.49 11.5967C7.39667 11.5967 7.30334 11.5733 7.21 11.5033C7.04667 11.3867 6.97667 11.1767 7.04667 10.9667L7.35 10.0567L6.53334 9.47334C6.37 9.35667 6.3 9.14668 6.37 8.93668C6.44 8.75001 6.60334 8.61001 6.81334 8.61001H7.77L8.07334 7.70001C8.14334 7.51334 8.30667 7.37334 8.51667 7.37334C8.72667 7.37334 8.91334 7.51334 8.96 7.70001L9.26334 8.61001H10.22C10.43 8.61001 10.6167 8.75001 10.6633 8.93668C10.7333 9.14668 10.6633 9.35667 10.5 9.47334Z" fill="#0274FF"/>
</svg>
