<svg width="14" height="14" viewBox="0 0 14 14" fill="none" xmlns="http://www.w3.org/2000/svg">
<path d="M12.9581 6.844L10.8701 1.384C10.8266 1.27124 10.7501 1.17425 10.6505 1.10573C10.5509 1.03721 10.433 1.00036 10.3121 1H3.71213C3.59127 1.00036 3.47333 1.03721 3.37376 1.10573C3.2742 1.17425 3.19765 1.27124 3.15413 1.384L1.04213 6.844C1.01277 6.91214 0.998441 6.98582 1.00013 7.06V12.4C1.00013 12.5591 1.06335 12.7117 1.17587 12.8243C1.23159 12.88 1.29773 12.9242 1.37052 12.9543C1.44332 12.9845 1.52134 13 1.60013 13H12.4001C12.5593 13 12.7119 12.9368 12.8244 12.8243C12.9369 12.7117 13.0001 12.5591 13.0001 12.4V7.06C13.0018 6.98582 12.9875 6.91214 12.9581 6.844ZM8.99213 6.958L8.24813 8.458H5.75213L5.00813 6.958H2.54213C2.53909 6.93812 2.53909 6.91788 2.54213 6.898C2.53985 6.87606 2.53985 6.85394 2.54213 6.832L4.23413 1.936H9.76613L11.4221 6.832C11.4256 6.85185 11.4256 6.87215 11.4221 6.892C11.4268 6.91375 11.4268 6.93625 11.4221 6.958H8.99213Z" fill="#0274FF"/>
</svg>
