<svg width="14" height="14" viewBox="0 0 14 14" fill="none" xmlns="http://www.w3.org/2000/svg">
<g clip-path="url(#clip0_215_34578)">
<path d="M13.5254 8.04609C13.1564 7.64232 12.7062 7.31783 12.2059 7.09371C12.8917 6.58553 13.2647 5.76076 13.1951 4.91068C13.1448 4.25203 12.8338 3.64154 12.3297 3.2165C11.8292 2.78777 11.1764 2.57701 10.5197 2.63115C10.2665 2.66209 10.083 2.88621 10.1043 3.13934C10.1256 3.39246 10.342 3.58547 10.5949 3.57404C11.4411 3.51023 12.181 4.14006 12.2504 4.98627C12.2833 5.39584 12.1537 5.79363 11.8872 6.1067C11.7563 6.26076 11.5962 6.38748 11.4162 6.47962C11.2362 6.57177 11.0398 6.62753 10.8382 6.64371C10.7342 6.65318 10.6367 6.69819 10.562 6.77115C10.3882 6.84059 10.2702 7.00687 10.2625 7.19619C10.2567 7.3217 10.3012 7.44334 10.3843 7.53615C10.4692 7.62879 10.5872 7.68486 10.7127 7.69066C11.526 7.72934 12.2755 8.08283 12.8242 8.68559C13.3728 9.28641 13.653 10.0669 13.6143 10.8802C13.6027 11.1411 13.8036 11.3631 14.0645 11.3747C14.3253 11.3863 14.5475 11.1854 14.5589 10.9245C14.6147 9.86385 14.2418 8.8285 13.5254 8.04609ZM3.61516 7.53615C3.70006 7.44334 3.74453 7.3217 3.73873 7.19619C3.731 7.00881 3.61322 6.8427 3.43938 6.77309C3.36414 6.70154 3.26746 6.65725 3.16516 6.64564C2.96312 6.63028 2.76616 6.57489 2.58573 6.48269C2.40529 6.3905 2.245 6.26335 2.11416 6.10863C1.8475 5.79768 1.71813 5.39391 1.751 4.9882C1.76716 4.78643 1.82311 4.58985 1.91561 4.4098C2.00811 4.22975 2.13533 4.06979 2.28994 3.93914C2.60283 3.67266 3.00274 3.54697 3.40844 3.57791C3.66719 3.59531 3.89518 3.40406 3.91838 3.1432C3.92998 3.0177 3.88938 2.89395 3.80834 2.79744C3.72731 2.70076 3.60936 2.64293 3.48578 2.63326C2.82889 2.57912 2.17604 2.78971 1.67576 3.21844C1.42653 3.42947 1.2217 3.6879 1.07314 3.97873C0.924589 4.26956 0.835278 4.58699 0.810392 4.91262C0.740959 5.7627 1.11379 6.58746 1.79951 7.09564C0.296584 7.76396 -0.638397 9.28447 -0.559295 10.9226C-0.547694 11.1757 -0.339041 11.3747 -0.0859162 11.3747H-0.0646467C0.0608611 11.3689 0.17881 11.3147 0.263713 11.2221C0.348615 11.1293 0.393088 11.0057 0.385353 10.8802C0.344748 10.0727 0.630744 9.28254 1.17549 8.68365C1.44385 8.38655 1.76848 8.14563 2.13059 7.97485C2.4927 7.80407 2.88509 7.70682 3.28504 7.68873C3.41231 7.68293 3.53008 7.62879 3.61516 7.53615Z" fill="#F5C021"/>
<path d="M8.85801 7.2173C9.71565 6.61647 10.2277 5.63315 10.2277 4.5862C10.2258 2.80519 8.7826 1.36009 7.00158 1.35815C5.22057 1.36009 3.77547 2.80519 3.77354 4.5862C3.77354 5.67376 4.31828 6.63405 5.14516 7.2173C3.13985 7.97069 1.70846 9.90253 1.70846 12.1685C1.70846 12.4294 1.92098 12.6417 2.18184 12.6417L11.8176 12.6398C12.0785 12.6398 12.291 12.4273 12.291 12.1666C12.2889 9.96247 10.9212 7.99196 8.85801 7.2173Z" fill="#F5C021"/>
</g>
<defs>
<clipPath id="clip0_215_34578">
<rect width="14" height="14" fill="white"/>
</clipPath>
</defs>
</svg>
