<svg width="24" height="24" viewBox="0 0 24 24" fill="none" xmlns="http://www.w3.org/2000/svg">
<path d="M12 7.79995C13.2703 7.79995 14.3 6.77021 14.3 5.49995C14.3 4.2297 13.2703 3.19995 12 3.19995C10.7297 3.19995 9.7 4.2297 9.7 5.49995C9.7 6.77021 10.7297 7.79995 12 7.79995Z" stroke="#4D5F78" stroke-width="1.8"/>
<path d="M6 18.8C7.27025 18.8 8.3 17.7702 8.3 16.5C8.3 15.2297 7.27025 14.2 6 14.2C4.72974 14.2 3.7 15.2297 3.7 16.5C3.7 17.7702 4.72974 18.8 6 18.8Z" stroke="#4D5F78" stroke-width="1.8"/>
<path d="M18 18.8C19.2703 18.8 20.3 17.7702 20.3 16.5C20.3 15.2297 19.2703 14.2 18 14.2C16.7297 14.2 15.7 15.2297 15.7 16.5C15.7 17.7702 16.7297 18.8 18 18.8Z" stroke="#4D5F78" stroke-width="1.8"/>
<path d="M10.9 7.59998L7.2 14.4" stroke="#4D5F78" stroke-width="1.8" stroke-linecap="round"/>
<path d="M13.1 7.59998L16.8 14.4" stroke="#4D5F78" stroke-width="1.8" stroke-linecap="round"/>
<path d="M8.3 16.5H15.7" stroke="#4D5F78" stroke-width="1.8" stroke-linecap="round"/>
</svg>
