<svg width="26" height="26" viewBox="0 0 26 26" fill="none" xmlns="http://www.w3.org/2000/svg">
<path d="M9.51921 4.95966C9.88114 4.95966 10.1917 5.0831 10.4508 5.32999C10.71 5.57688 10.8374 5.87887 10.8374 6.23818V11.3919C10.8374 11.749 10.71 12.0554 10.4508 12.3111C10.1917 12.5668 9.88338 12.6925 9.51921 12.6925H4.2958C3.93387 12.6925 3.62779 12.5668 3.37534 12.3111C3.12511 12.0554 3 11.7512 3 11.3919V6.23818C3 5.88108 3.12511 5.57908 3.37534 5.32999C3.62556 5.0831 3.93164 4.95966 4.2958 4.95966H9.51921ZM9.51921 15.2672C9.88114 15.2672 10.1917 15.3906 10.4508 15.6375C10.71 15.8844 10.8374 16.1864 10.8374 16.5457V21.7215C10.8374 22.0786 10.71 22.3806 10.4508 22.6297C10.1917 22.8766 9.88338 23 9.51921 23H4.2958C3.93387 23 3.62779 22.8766 3.37534 22.6297C3.12288 22.3828 3 22.0808 3 21.7215V16.5457C3 16.1886 3.12511 15.8866 3.37534 15.6375C3.62556 15.3884 3.93164 15.2672 4.2958 15.2672H9.51921ZM19.9861 15.2672C20.3481 15.2672 20.6542 15.3906 20.9066 15.6375C21.1568 15.8844 21.2819 16.1864 21.2819 16.5457V21.7215C21.2819 22.0786 21.1568 22.3806 20.9066 22.6297C20.6564 22.8766 20.3503 23 19.9861 23H14.765C14.403 23 14.0925 22.8766 13.8333 22.6297C13.5742 22.3828 13.4468 22.0808 13.4468 21.7215V16.5457C13.4468 16.1886 13.5742 15.8866 13.8333 15.6375C14.0925 15.3906 14.4008 15.2672 14.765 15.2672H19.9861ZM22.5822 7.22572C22.8615 7.50127 23 7.8231 23 8.19343C23 8.56376 22.8615 8.88119 22.5822 9.1435L18.6948 12.9791C18.4155 13.2546 18.0938 13.3913 17.7252 13.3913C17.3566 13.3913 17.0326 13.2546 16.7556 12.9791L12.8682 9.1435C12.6023 8.88119 12.4705 8.56596 12.4705 8.19343C12.4705 7.8231 12.6023 7.49906 12.8682 7.22572L16.7534 3.39237C17.0326 3.13006 17.3543 3 17.723 3C18.0916 3 18.4156 3.13006 18.6926 3.39237L22.5822 7.22572Z" fill="#0274FF"/>
</svg>
