<svg width="25" height="30" viewBox="0 0 25 30" fill="none" xmlns="http://www.w3.org/2000/svg">
<path d="M23.8439 4.31322C20.0799 4.14653 16.4765 2.8483 13.1329 0.453346L12.4991 0L11.867 0.453346C8.5254 2.84791 4.92166 4.14652 1.18145 4.31239H0V14.4639C0 21.9 5.0294 28.2677 12.2312 29.9486L12.5455 30L12.7712 29.9486C19.9714 28.2677 25 21.9 25 14.4639V4.31239L23.8439 4.31322Z" fill="#387CFE"/>
<path d="M12.7932 8.80273C14.8603 8.80273 16.5422 10.4846 16.5422 12.5518C16.5421 13.64 16.0754 14.62 15.3332 15.3047C17.205 16.2397 18.4949 18.1756 18.4963 20.4072L18.4914 20.4883C18.4508 20.8903 18.1121 21.2039 17.6994 21.2041C17.2592 21.2041 16.9025 20.8474 16.9025 20.4072C16.9025 18.1432 15.0591 16.2999 12.7951 16.2998C10.531 16.2998 8.68768 18.1418 8.68768 20.4072C8.68768 20.8474 8.33103 21.2041 7.89081 21.2041C7.45059 21.2041 7.09393 20.8474 7.09393 20.4072C7.09393 18.1758 8.38174 16.2399 10.2531 15.3047C9.51212 14.6202 9.04522 13.6399 9.0451 12.5518C9.0451 10.4847 10.7262 8.80295 12.7932 8.80273ZM12.7932 10.3955C11.6051 10.3957 10.6369 11.3625 10.6369 12.5518C10.6371 13.7396 11.6054 14.7078 12.7932 14.708C13.9811 14.708 14.9492 13.7397 14.9494 12.5518C14.9494 11.3637 13.9813 10.3955 12.7932 10.3955Z" fill="white" stroke="white" stroke-width="0.5"/>
</svg>
