<svg width="25" height="30" viewBox="0 0 25 30" fill="none" xmlns="http://www.w3.org/2000/svg">
<path d="M23.8439 4.31322C20.0799 4.14653 16.4765 2.8483 13.1329 0.453346L12.4991 0L11.867 0.453346C8.5254 2.84791 4.92166 4.14652 1.18145 4.31239H0V14.4639C0 21.9 5.0294 28.2677 12.2312 29.9486L12.5455 30L12.7712 29.9486C19.9714 28.2677 25 21.9 25 14.4639V4.31239L23.8439 4.31322Z" fill="#13C576"/>
<path d="M11.867 0.453346L12.4991 0L12.5455 30L12.2312 29.9486C5.0294 28.2677 0 21.9 0 14.4639V4.31239H1.18145C4.92166 4.14652 8.5254 2.84791 11.867 0.453346Z" fill="#67E0A7"/>
<path d="M18.3984 9.7002C18.6359 9.7002 18.8553 9.80495 19.0273 9.98047C19.1995 10.1563 19.2998 10.3779 19.2998 10.6143C19.2998 10.8506 19.1995 11.0723 19.0273 11.248L19.0264 11.2471L11.3135 19.209L11.1055 19.4229L10.8906 19.2168L6.99121 15.4902L6.98438 15.4834V15.4824C6.61654 15.1067 6.64661 14.6175 6.84668 14.209L6.88086 14.1377L6.94727 14.0928C7.09948 13.9893 7.29494 13.8984 7.50879 13.8828C7.7311 13.8666 7.96084 13.9345 8.15039 14.123H8.15137L11.168 16.9658L17.7656 9.98438L17.7695 9.98047C17.9415 9.80492 18.1609 9.70022 18.3984 9.7002Z" fill="white" stroke="white" stroke-width="0.6"/>
</svg>
