<svg width="24" height="24" viewBox="0 0 24 24" fill="none" xmlns="http://www.w3.org/2000/svg">
<path d="M12 9C12.394 9 12.7841 9.0776 13.1481 9.22836C13.512 9.37913 13.8427 9.6001 14.1213 9.87868C14.3999 10.1573 14.6209 10.488 14.7716 10.8519C14.9224 11.2159 15 11.606 15 12C15 12.394 14.9224 12.7841 14.7716 13.1481C14.6209 13.512 14.3999 13.8427 14.1213 14.1213C13.8427 14.3999 13.512 14.6209 13.1481 14.7716C12.7841 14.9224 12.394 15 12 15C11.2044 15 10.4413 14.6839 9.87868 14.1213C9.31607 13.5587 9 12.7956 9 12C9 11.2044 9.31607 10.4413 9.87868 9.87868C10.4413 9.31607 11.2044 9 12 9Z" stroke="#4D5F78" stroke-width="1.6"/>
<path d="M18.3111 13.0353C18.4 12.6588 18.4 12.3765 18.4 12C18.4 11.6235 18.4 11.3412 18.3111 10.9647L20 9.64706L18.3111 6.54118L16.3556 7.38824C15.8222 6.91765 15.2889 6.54118 14.6667 6.25882L14.4 4H9.6L9.33333 6.25882C8.71111 6.54118 8.17778 6.91765 7.64444 7.38824L5.68889 6.54118L4 9.64706L5.68889 10.9647C5.6 11.3412 5.6 11.6235 5.6 12C5.6 12.3765 5.6 12.6588 5.68889 13.0353L4 14.3529L5.68889 17.4588L7.64444 16.6118C8.17778 17.0824 8.71111 17.4588 9.33333 17.7412L9.6 20H14.4L14.6667 17.7412C15.2889 17.4588 15.8222 17.0824 16.3556 16.6118L18.3111 17.4588L20 14.3529L18.3111 13.0353Z" stroke="#4D5F78" stroke-width="1.6" stroke-linejoin="round"/>
</svg>
