<svg width="12" height="12" viewBox="0 0 12 12" fill="none" xmlns="http://www.w3.org/2000/svg">
<path d="M6 0C9.3138 0 12 2.6862 12 6C12 9.3138 9.3138 12 6 12C2.6862 12 0 9.3138 0 6C0 2.6862 2.6862 0 6 0ZM5.40039 2.69238C5.06902 2.69238 4.7998 2.9616 4.7998 3.29297V6.59961L4.80469 6.66992C4.84028 6.97202 5.0962 7.2002 5.40039 7.2002H8.71777L8.78809 7.19531C9.09016 7.15976 9.31829 6.90382 9.31836 6.59961L9.31445 6.53027C9.27883 6.22795 9.02219 5.99973 8.71777 6H6V3.29297C6 2.96191 5.70805 2.69261 5.40039 2.69238Z" fill="#8F9EB2"/>
<mask id="mask0_187_1824" style="mask-type:luminance" maskUnits="userSpaceOnUse" x="0" y="0" width="12" height="12">
<path d="M6 0C9.3138 0 12 2.6862 12 6C12 9.3138 9.3138 12 6 12C2.6862 12 0 9.3138 0 6C0 2.6862 2.6862 0 6 0ZM5.40039 2.69238C5.06902 2.69238 4.7998 2.9616 4.7998 3.29297V6.59961L4.80469 6.66992C4.84028 6.97202 5.0962 7.2002 5.40039 7.2002H8.71777L8.78809 7.19531C9.09016 7.15976 9.31829 6.90382 9.31836 6.59961L9.31445 6.53027C9.27883 6.22795 9.02219 5.99973 8.71777 6H6V3.29297C6 2.96191 5.70805 2.69261 5.40039 2.69238Z" fill="white"/>
</mask>
<g mask="url(#mask0_187_1824)">
<path fill-rule="evenodd" clip-rule="evenodd" d="M-1.63623 -1.63635H13.6365V13.6363H-1.63623V-1.63635Z" fill="#8F9EB2"/>
</g>
</svg>
