<svg width="24" height="24" viewBox="0 0 24 24" fill="none" xmlns="http://www.w3.org/2000/svg">
<path d="M7.84116 7.1623C7.57137 7.1614 7.31289 7.05383 7.12212 6.86306C6.93135 6.67229 6.82378 6.41381 6.82288 6.14402V4.44687C6.82288 3.8863 7.2823 3.42859 7.84116 3.42859C8.40173 3.42859 8.85945 3.8863 8.85945 4.44687V6.14402C8.85854 6.41381 8.75097 6.67229 8.5602 6.86306C8.36943 7.05383 8.11095 7.1614 7.84116 7.1623ZM14.9794 7.1623C14.7097 7.1614 14.4512 7.05383 14.2604 6.86306C14.0696 6.67229 13.9621 6.41381 13.9612 6.14402V4.44687C13.9612 3.8863 14.4189 3.42859 14.9794 3.42859C15.5383 3.42859 15.9977 3.8863 15.9977 4.44687V6.14402C15.9968 6.41381 15.8893 6.67229 15.6985 6.86306C15.5077 7.05383 15.2492 7.1614 14.9794 7.1623Z" fill="#0274FF"/>
<path d="M18.3309 4.61658H4.47945C4.201 4.61838 3.9345 4.72991 3.73776 4.92696C3.54103 5.12402 3.42994 5.3907 3.42859 5.66915V19.5103C3.42859 20.0966 3.90345 20.5714 4.48973 20.5714H18.324C18.6052 20.571 18.8746 20.459 19.0733 20.26C19.2719 20.0611 19.3834 19.7914 19.3834 19.5103V5.66915C19.3808 5.39082 19.269 5.12465 19.0722 4.92783C18.8754 4.73101 18.6092 4.61926 18.3309 4.61658ZM15.8366 12.7303L11.2783 17.2869C11.1508 17.4137 10.9782 17.485 10.7983 17.485C10.6184 17.485 10.4458 17.4137 10.3183 17.2869L7.44516 14.4103C7.31828 14.2828 7.24706 14.1102 7.24706 13.9303C7.24706 13.7504 7.31828 13.5778 7.44516 13.4503C7.57262 13.3239 7.74483 13.253 7.9243 13.253C8.10378 13.253 8.27599 13.3239 8.40345 13.4503L10.8052 15.8537L14.8869 11.7703C15.0144 11.6434 15.187 11.5722 15.3669 11.5722C15.5468 11.5722 15.7193 11.6434 15.8469 11.7703C15.9706 11.9 16.0389 12.0728 16.0373 12.252C16.0357 12.4313 15.9643 12.6028 15.8383 12.7303H15.8366ZM18.0086 6.43201C18 6.62743 18 6.90001 17.9914 7.23086C17.9829 7.51029 17.9829 7.79143 17.9829 8.01086H4.79487V6.08572C4.79487 6.02572 4.8463 5.97429 4.91487 5.97429H17.8989C17.9674 5.97429 18.0172 6.02572 18.0172 6.08572C18.0086 6.18686 18.0086 6.31372 18.0086 6.43201Z" fill="#0274FF"/>
</svg>
