<svg width="24" height="24" viewBox="0 0 24 24" fill="none" xmlns="http://www.w3.org/2000/svg">
<path d="M7 8.20005C8.21503 8.20005 9.2 7.21508 9.2 6.00005C9.2 4.78502 8.21503 3.80005 7 3.80005C5.78498 3.80005 4.8 4.78502 4.8 6.00005C4.8 7.21508 5.78498 8.20005 7 8.20005Z" stroke="#4D5F78" stroke-width="1.8"/>
<path d="M17 8.20005C18.215 8.20005 19.2 7.21508 19.2 6.00005C19.2 4.78502 18.215 3.80005 17 3.80005C15.785 3.80005 14.8 4.78502 14.8 6.00005C14.8 7.21508 15.785 8.20005 17 8.20005Z" stroke="#4D5F78" stroke-width="1.8"/>
<path d="M12 20.2C13.215 20.2 14.2 19.2151 14.2 18C14.2 16.785 13.215 15.8 12 15.8C10.785 15.8 9.8 16.785 9.8 18C9.8 19.2151 10.785 20.2 12 20.2Z" stroke="#4D5F78" stroke-width="1.8"/>
<path d="M8.8 7.40002L10.8 10.3C11.3 11 12.3 11 12.8 10.3L15 7.40002" stroke="#4D5F78" stroke-width="1.8" stroke-linecap="round" stroke-linejoin="round"/>
<path d="M12 11V15.5" stroke="#4D5F78" stroke-width="1.8" stroke-linecap="round"/>
</svg>
